<svg width="1144" height="452" viewBox="0 0 1144 452" fill="none" xmlns="http://www.w3.org/2000/svg">
<path d="M376.312 297V159.64H470.04V185.698H408.228V214.584H457.92V240.44H408.228V270.74H470.04V297H376.312ZM482.116 297V195.394H512.82V201.656C514.974 200.309 517.533 199.03 520.496 197.818C523.458 196.471 526.556 195.394 529.788 194.586C533.154 193.643 536.319 193.172 539.282 193.172C548.843 193.172 556.25 194.855 561.502 198.222C566.888 201.454 570.659 206.908 572.814 214.584C575.103 222.125 576.248 232.158 576.248 244.682V297H545.342V246.5C545.342 240.171 544.938 235.053 544.13 231.148C543.322 227.243 541.908 224.415 539.888 222.664C537.868 220.913 534.972 220.038 531.202 220.038C529.047 220.038 526.825 220.24 524.536 220.644C522.246 221.048 520.092 221.587 518.072 222.26C516.052 222.933 514.368 223.607 513.022 224.28V297H482.116ZM590.912 339.016V195.394H621.414L621.616 201.656C623.501 200.444 625.79 199.165 628.484 197.818C631.312 196.471 634.342 195.394 637.574 194.586C640.806 193.643 643.97 193.172 647.068 193.172C660.804 193.172 670.634 197.616 676.56 206.504C682.485 215.392 685.448 228.589 685.448 246.096C685.448 258.485 683.966 268.653 681.004 276.598C678.176 284.409 673.53 290.199 667.066 293.97C660.602 297.606 651.983 299.424 641.21 299.424C637.978 299.424 634.476 299.087 630.706 298.414C627.07 297.875 624.107 297.404 621.818 297V339.016H590.912ZM635.554 273.972C640.402 273.972 644.172 272.895 646.866 270.74C649.559 268.451 651.444 265.219 652.522 261.044C653.734 256.735 654.34 251.483 654.34 245.288C654.34 235.188 652.993 228.253 650.3 224.482C647.606 220.711 643.634 218.826 638.382 218.826C636.631 218.826 634.678 219.095 632.524 219.634C630.504 220.038 628.551 220.577 626.666 221.25C624.78 221.923 623.164 222.597 621.818 223.27V272.558C623.164 272.827 625.117 273.164 627.676 273.568C630.369 273.837 632.995 273.972 635.554 273.972ZM726.01 299.424C714.968 299.424 706.686 296.731 701.164 291.344C695.778 285.957 693.084 277.743 693.084 266.7C693.084 258.889 694.498 252.897 697.326 248.722C700.289 244.413 704.531 241.315 710.052 239.43C715.574 237.545 722.24 236.4 730.05 235.996L752.674 234.178V228.926C752.674 224.886 751.53 222.058 749.24 220.442C747.086 218.691 743.854 217.816 739.544 217.816C735.639 217.816 731.195 217.951 726.212 218.22C721.23 218.489 716.314 218.826 711.466 219.23C706.618 219.634 702.444 220.038 698.942 220.442L697.932 199.03C701.568 198.087 705.878 197.212 710.86 196.404C715.978 195.461 721.297 194.721 726.818 194.182C732.34 193.509 737.524 193.172 742.372 193.172C751.126 193.172 758.532 194.249 764.592 196.404C770.787 198.424 775.5 201.925 778.732 206.908C781.964 211.756 783.58 218.557 783.58 227.31V271.75C783.984 273.366 784.927 274.645 786.408 275.588C788.024 276.396 789.775 277.002 791.66 277.406L791.054 298.01C787.957 298.279 784.658 298.481 781.156 298.616C777.79 298.751 775.096 298.683 773.076 298.414C769.575 298.01 766.545 297.202 763.986 295.99C761.562 294.643 759.744 293.297 758.532 291.95C756.378 292.893 753.55 293.97 750.048 295.182C746.547 296.394 742.709 297.404 738.534 298.212C734.494 299.02 730.32 299.424 726.01 299.424ZM733.686 277.002C735.976 277.002 738.265 276.733 740.554 276.194C742.978 275.655 745.268 275.049 747.422 274.376C749.577 273.703 751.328 273.097 752.674 272.558V252.56L734.898 254.176C731.128 254.58 728.367 255.792 726.616 257.812C724.866 259.697 723.99 262.391 723.99 265.892C723.99 269.259 724.798 271.952 726.414 273.972C728.03 275.992 730.454 277.002 733.686 277.002ZM847.468 342.854C836.694 342.854 827.537 342.046 819.996 340.43C812.454 338.949 806.731 336.121 802.826 331.946C799.055 327.771 797.17 321.711 797.17 313.766C797.17 310.265 797.641 307.167 798.584 304.474C799.526 301.781 801.075 299.222 803.23 296.798C805.384 294.239 808.145 291.681 811.512 289.122C809.626 287.641 808.078 285.621 806.866 283.062C805.654 280.369 805.048 277.473 805.048 274.376C805.048 272.76 806.058 270.403 808.078 267.306C810.232 264.209 812.387 261.515 814.542 259.226C811.848 257.879 809.29 256.061 806.866 253.772C804.442 251.348 802.422 248.116 800.806 244.076C799.19 240.036 798.382 234.919 798.382 228.724C798.382 215.661 802.085 206.504 809.492 201.252C816.898 195.865 827.874 193.172 842.418 193.172C845.784 193.172 849.488 193.441 853.528 193.98C857.702 194.384 861.002 194.923 863.426 195.596L897.16 194.788V214.988L883.02 214.786C884.232 216.267 885.242 218.153 886.05 220.442C886.858 222.731 887.262 225.492 887.262 228.724C887.262 238.151 885.646 245.423 882.414 250.54C879.182 255.657 874.334 259.226 867.87 261.246C861.406 263.131 853.124 264.074 843.024 264.074C841.946 264.074 840.532 264.007 838.782 263.872C837.031 263.603 835.55 263.401 834.338 263.266C833.934 264.343 833.462 265.623 832.924 267.104C832.385 268.451 832.116 269.461 832.116 270.134C832.116 271.615 832.722 272.76 833.934 273.568C835.146 274.376 837.57 274.915 841.206 275.184C844.842 275.453 850.296 275.588 857.568 275.588C867.129 275.588 874.738 276.531 880.394 278.416C886.05 280.167 890.09 283.331 892.514 287.91C894.938 292.354 896.15 298.616 896.15 306.696C896.15 318.816 891.84 327.839 883.222 333.764C874.603 339.824 862.685 342.854 847.468 342.854ZM845.65 320.432C853.46 320.432 859.049 319.624 862.416 318.008C865.782 316.392 867.466 313.699 867.466 309.928C867.466 307.1 866.86 304.945 865.648 303.464C864.436 302.117 862.416 301.242 859.588 300.838C856.894 300.434 853.191 300.232 848.478 300.232C847.131 300.232 845.515 300.165 843.63 300.03C841.744 300.03 839.926 299.963 838.176 299.828C836.425 299.828 834.809 299.761 833.328 299.626C831.846 299.626 830.769 299.559 830.096 299.424C827.537 301.175 825.786 302.791 824.844 304.272C824.036 305.753 823.632 307.706 823.632 310.13C823.632 312.689 824.305 314.709 825.652 316.19C827.133 317.671 829.49 318.749 832.722 319.422C835.954 320.095 840.263 320.432 845.65 320.432ZM842.62 242.864C848.006 242.864 851.844 241.787 854.134 239.632C856.558 237.343 857.77 233.639 857.77 228.522C857.77 223.405 856.558 219.769 854.134 217.614C851.844 215.325 848.006 214.18 842.62 214.18C837.368 214.18 833.597 215.325 831.308 217.614C829.018 219.769 827.874 223.405 827.874 228.522C827.874 233.639 829.018 237.343 831.308 239.632C833.597 241.787 837.368 242.864 842.62 242.864ZM948.682 299.424C937.235 299.424 928.078 297.539 921.21 293.768C914.477 289.997 909.629 284.274 906.666 276.598C903.838 268.922 902.424 259.226 902.424 247.51C902.424 235.255 904.175 225.155 907.676 217.21C911.312 209.13 916.631 203.137 923.634 199.232C930.637 195.192 939.457 193.172 950.096 193.172C965.717 193.172 977.433 196.943 985.244 204.484C993.189 212.025 997.162 223.943 997.162 240.238L995.546 256.196H933.33C933.465 262.66 934.811 267.508 937.37 270.74C940.063 273.837 944.642 275.386 951.106 275.386C955.281 275.386 959.927 275.319 965.044 275.184C970.296 274.915 975.481 274.645 980.598 274.376C985.715 274.107 990.092 273.837 993.728 273.568L994.334 294.576C990.833 295.249 986.456 295.99 981.204 296.798C975.952 297.471 970.498 298.077 964.842 298.616C959.186 299.155 953.799 299.424 948.682 299.424ZM933.128 237.41H966.256C966.256 229.33 964.977 223.741 962.418 220.644C959.859 217.412 955.752 215.796 950.096 215.796C944.44 215.796 940.198 217.479 937.37 220.846C934.677 224.078 933.263 229.599 933.128 237.41Z" fill="#333333"/>
<g clip-path="url(#clip0_934_42)">
<path d="M264.219 116H95.7812C81.5427 116 70 127.543 70 141.781V310.219C70 324.457 81.5427 336 95.7812 336H264.219C278.457 336 290 324.457 290 310.219V141.781C290 127.543 278.457 116 264.219 116Z" fill="#817FCC"/>
<path d="M259.922 137.484H100.078C95.3319 137.484 91.4844 141.332 91.4844 146.078V171.859C91.4844 176.606 95.3319 180.453 100.078 180.453H259.922C264.668 180.453 268.516 176.606 268.516 171.859V146.078C268.516 141.332 264.668 137.484 259.922 137.484Z" fill="white"/>
<path d="M163.801 200.219H99.5195C95.0818 200.219 91.4844 203.724 91.4844 208.047V306.687C91.4844 311.011 95.0818 314.516 99.5195 314.516H163.801C168.238 314.516 171.836 311.011 171.836 306.687V208.047C171.836 203.724 168.238 200.219 163.801 200.219Z" fill="white"/>
<path d="M260.549 200.219H199.998C195.598 200.219 192.031 203.352 192.031 207.217V242.205C192.031 246.07 195.598 249.203 199.998 249.203H260.549C264.949 249.203 268.516 246.07 268.516 242.205V207.217C268.516 203.352 264.949 200.219 260.549 200.219Z" fill="white"/>
<path d="M192.031 282.068H196.031V273.682C196.031 272.191 197.466 270.391 199.998 270.391H207.567V266.391H222.705V270.391H237.842V266.391H252.98V270.391H260.549C263.08 270.391 264.516 272.191 264.516 273.682V282.068H268.516V298.839H264.516V307.224C264.516 308.716 263.08 310.516 260.549 310.516H252.98V314.516H237.842V310.516H222.705V314.516H207.567V310.516H199.998C197.466 310.516 196.031 308.716 196.031 307.224V298.839H192.031V282.068Z" stroke="white" stroke-width="8" stroke-dasharray="16 16"/>
</g>
<rect x="599" y="354" width="418" height="89" rx="42" fill="#817FCC"/>
<path d="M650.46 421V372.77H668.03C671.623 372.77 674.61 373.33 676.99 374.45C679.417 375.57 681.33 377.157 682.73 379.21C684.13 381.263 685.11 383.737 685.67 386.63C686.277 389.477 686.58 392.65 686.58 396.15C686.58 399.697 686.3 402.987 685.74 406.02C685.18 409.007 684.2 411.643 682.8 413.93C681.4 416.17 679.51 417.92 677.13 419.18C674.75 420.393 671.74 421 668.1 421H650.46ZM657.18 415.19H667.96C670.387 415.19 672.347 414.677 673.84 413.65C675.38 412.623 676.57 411.223 677.41 409.45C678.25 407.677 678.833 405.67 679.16 403.43C679.487 401.143 679.65 398.717 679.65 396.15C679.65 393.63 679.487 391.32 679.16 389.22C678.833 387.073 678.25 385.207 677.41 383.62C676.57 382.033 675.38 380.82 673.84 379.98C672.347 379.093 670.387 378.65 667.96 378.65H657.18V415.19ZM707.687 421.7C704.094 421.7 701.247 421.047 699.147 419.74C697.094 418.387 695.601 416.38 694.667 413.72C693.734 411.06 693.267 407.723 693.267 403.71C693.267 399.323 693.874 395.777 695.087 393.07C696.347 390.363 698.097 388.38 700.337 387.12C702.577 385.86 705.261 385.23 708.387 385.23C713.194 385.23 716.811 386.537 719.237 389.15C721.711 391.717 722.947 395.87 722.947 401.61L722.597 406.02H699.917C699.964 409.38 700.594 411.923 701.807 413.65C703.021 415.33 705.214 416.17 708.387 416.17C709.741 416.17 711.211 416.147 712.797 416.1C714.431 416.007 716.041 415.913 717.627 415.82C719.214 415.727 720.567 415.633 721.687 415.54L721.827 420.44C720.661 420.627 719.261 420.813 717.627 421C715.994 421.233 714.291 421.397 712.517 421.49C710.791 421.63 709.181 421.7 707.687 421.7ZM699.917 401.19H716.437C716.437 397.223 715.784 394.447 714.477 392.86C713.217 391.273 711.187 390.48 708.387 390.48C705.634 390.48 703.534 391.297 702.087 392.93C700.641 394.563 699.917 397.317 699.917 401.19ZM736.721 421L727.341 385.93H734.341L741.761 415.4H744.211L751.841 385.93H758.491L749.111 421H736.721ZM777.619 421.7C774.025 421.7 771.179 421.047 769.079 419.74C767.025 418.387 765.532 416.38 764.599 413.72C763.665 411.06 763.199 407.723 763.199 403.71C763.199 399.323 763.805 395.777 765.019 393.07C766.279 390.363 768.029 388.38 770.269 387.12C772.509 385.86 775.192 385.23 778.319 385.23C783.125 385.23 786.742 386.537 789.169 389.15C791.642 391.717 792.879 395.87 792.879 401.61L792.529 406.02H769.849C769.895 409.38 770.525 411.923 771.739 413.65C772.952 415.33 775.145 416.17 778.319 416.17C779.672 416.17 781.142 416.147 782.729 416.1C784.362 416.007 785.972 415.913 787.559 415.82C789.145 415.727 790.499 415.633 791.619 415.54L791.759 420.44C790.592 420.627 789.192 420.813 787.559 421C785.925 421.233 784.222 421.397 782.449 421.49C780.722 421.63 779.112 421.7 777.619 421.7ZM769.849 401.19H786.369C786.369 397.223 785.715 394.447 784.409 392.86C783.149 391.273 781.119 390.48 778.319 390.48C775.565 390.48 773.465 391.297 772.019 392.93C770.572 394.563 769.849 397.317 769.849 401.19ZM800.842 421V371.02H807.282V421H800.842ZM831.032 421.7C827.112 421.7 824.032 421.047 821.792 419.74C819.552 418.387 817.965 416.333 817.032 413.58C816.099 410.827 815.632 407.327 815.632 403.08C815.632 399.02 816.122 395.683 817.102 393.07C818.129 390.457 819.762 388.497 822.002 387.19C824.289 385.883 827.299 385.23 831.032 385.23C834.812 385.23 837.822 385.883 840.062 387.19C842.302 388.497 843.912 390.457 844.892 393.07C845.919 395.683 846.432 399.02 846.432 403.08C846.432 407.327 845.965 410.827 845.032 413.58C844.145 416.333 842.582 418.387 840.342 419.74C838.102 421.047 834.999 421.7 831.032 421.7ZM831.032 416.17C833.505 416.17 835.372 415.727 836.632 414.84C837.892 413.953 838.732 412.553 839.152 410.64C839.572 408.68 839.782 406.16 839.782 403.08C839.782 400.047 839.525 397.643 839.012 395.87C838.499 394.05 837.612 392.743 836.352 391.95C835.092 391.157 833.319 390.76 831.032 390.76C828.792 390.76 827.019 391.157 825.712 391.95C824.452 392.743 823.565 394.05 823.052 395.87C822.539 397.643 822.282 400.047 822.282 403.08C822.282 406.16 822.492 408.68 822.912 410.64C823.332 412.553 824.149 413.953 825.362 414.84C826.622 415.727 828.512 416.17 831.032 416.17ZM854.426 436.26V385.93H860.936V388.38C861.636 387.96 862.546 387.517 863.666 387.05C864.786 386.537 865.976 386.117 867.236 385.79C868.496 385.417 869.71 385.23 870.876 385.23C875.403 385.23 878.693 386.677 880.746 389.57C882.8 392.417 883.826 396.943 883.826 403.15C883.826 407.677 883.29 411.317 882.216 414.07C881.19 416.777 879.533 418.737 877.246 419.95C875.006 421.117 872.09 421.7 868.496 421.7C867.096 421.7 865.673 421.607 864.226 421.42C862.826 421.233 861.73 421.07 860.936 420.93V436.26H854.426ZM867.866 416.1C870.2 416.1 872.043 415.657 873.396 414.77C874.796 413.883 875.776 412.483 876.336 410.57C876.896 408.657 877.176 406.16 877.176 403.08C877.176 398.6 876.523 395.473 875.216 393.7C873.91 391.88 872.066 390.97 869.686 390.97C868.66 390.97 867.586 391.11 866.466 391.39C865.393 391.623 864.366 391.927 863.386 392.3C862.406 392.627 861.59 393 860.936 393.42V415.47C861.636 415.563 862.64 415.703 863.946 415.89C865.3 416.03 866.606 416.1 867.866 416.1ZM904.562 421.7C900.969 421.7 898.122 421.047 896.022 419.74C893.969 418.387 892.476 416.38 891.542 413.72C890.609 411.06 890.142 407.723 890.142 403.71C890.142 399.323 890.749 395.777 891.962 393.07C893.222 390.363 894.972 388.38 897.212 387.12C899.452 385.86 902.136 385.23 905.262 385.23C910.069 385.23 913.686 386.537 916.112 389.15C918.586 391.717 919.822 395.87 919.822 401.61L919.472 406.02H896.792C896.839 409.38 897.469 411.923 898.682 413.65C899.896 415.33 902.089 416.17 905.262 416.17C906.616 416.17 908.086 416.147 909.672 416.1C911.306 416.007 912.916 415.913 914.502 415.82C916.089 415.727 917.442 415.633 918.562 415.54L918.702 420.44C917.536 420.627 916.136 420.813 914.502 421C912.869 421.233 911.166 421.397 909.392 421.49C907.666 421.63 906.056 421.7 904.562 421.7ZM896.792 401.19H913.312C913.312 397.223 912.659 394.447 911.352 392.86C910.092 391.273 908.062 390.48 905.262 390.48C902.509 390.48 900.409 391.297 898.962 392.93C897.516 394.563 896.792 397.317 896.792 401.19ZM927.366 421V385.93H933.876V390.48C934.716 389.873 935.789 389.22 937.096 388.52C938.402 387.82 939.826 387.167 941.366 386.56C942.952 385.907 944.516 385.44 946.056 385.16V391.67C944.562 391.95 943.022 392.347 941.436 392.86C939.896 393.373 938.449 393.933 937.096 394.54C935.789 395.1 934.716 395.613 933.876 396.08V421H927.366ZM963.18 421.7C961.967 421.7 960.567 421.63 958.98 421.49C957.44 421.35 955.9 421.187 954.36 421C952.867 420.767 951.56 420.533 950.44 420.3L950.72 415.05C951.887 415.19 953.217 415.353 954.71 415.54C956.203 415.727 957.65 415.89 959.05 416.03C960.497 416.123 961.64 416.17 962.48 416.17C964.253 416.17 965.723 416.007 966.89 415.68C968.057 415.353 968.943 414.817 969.55 414.07C970.157 413.277 970.46 412.203 970.46 410.85C970.46 409.777 970.227 408.96 969.76 408.4C969.293 407.793 968.43 407.303 967.17 406.93C965.91 406.51 964.067 406.113 961.64 405.74C959.027 405.32 956.857 404.807 955.13 404.2C953.403 403.547 952.12 402.567 951.28 401.26C950.44 399.953 950.02 398.133 950.02 395.8C950.02 393.093 950.627 390.993 951.84 389.5C953.1 387.96 954.71 386.863 956.67 386.21C958.677 385.557 960.777 385.23 962.97 385.23C964.37 385.23 965.863 385.3 967.45 385.44C969.083 385.58 970.647 385.767 972.14 386C973.633 386.233 974.917 386.443 975.99 386.63L975.78 391.95C974.66 391.763 973.353 391.6 971.86 391.46C970.367 391.273 968.873 391.133 967.38 391.04C965.887 390.947 964.58 390.9 963.46 390.9C962.153 390.9 960.963 391.04 959.89 391.32C958.863 391.553 958.047 392.02 957.44 392.72C956.88 393.373 956.6 394.33 956.6 395.59C956.6 396.523 956.81 397.27 957.23 397.83C957.65 398.39 958.49 398.88 959.75 399.3C961.01 399.673 962.807 400.047 965.14 400.42C968.033 400.887 970.343 401.47 972.07 402.17C973.797 402.87 975.057 403.873 975.85 405.18C976.643 406.487 977.04 408.283 977.04 410.57C977.04 414.723 975.803 417.617 973.33 419.25C970.903 420.883 967.52 421.7 963.18 421.7Z" fill="white"/>
<defs>
<clipPath id="clip0_934_42">
<rect width="220" height="220" fill="white" transform="translate(70 116)"/>
</clipPath>
</defs>
</svg>
