<svg width="313" height="313" viewBox="0 0 313 313" fill="none" xmlns="http://www.w3.org/2000/svg">
<path d="M245.237 113.085C237.604 115.471 233.787 123.581 236.173 131.215C238.558 139.325 239.989 147.912 239.989 156.5C239.989 202.3 202.3 239.99 156.5 239.99C110.7 239.99 73.0103 202.3 73.0103 156.5C73.0103 110.7 110.7 73.0104 156.5 73.0104C171.289 73.0104 185.602 76.827 198.006 83.9833C204.685 87.8 213.75 85.4145 217.567 78.7354C221.383 72.0562 218.998 62.9916 212.319 59.175C195.621 49.6333 176.06 44.3854 156.5 44.3854C94.479 44.3854 44.3853 94.4791 44.3853 156.5C44.3853 218.521 94.479 268.615 156.5 268.615C218.521 268.615 268.614 218.521 268.614 156.5C268.614 145.05 266.706 133.123 263.367 122.15C260.981 114.994 252.871 110.7 245.237 113.085Z" fill="#817FCC"/>
<path d="M142.188 184.648V194.19C142.188 202.3 148.39 208.502 156.5 208.502C164.611 208.502 170.813 202.3 170.813 194.19V184.648C170.813 176.537 164.611 170.335 156.5 170.335C148.39 170.335 142.188 176.537 142.188 184.648ZM103.544 133.6V143.142C103.544 151.252 109.746 157.454 117.856 157.454C125.967 157.454 132.169 151.252 132.169 143.142V133.6C132.169 125.49 125.967 119.287 117.856 119.287C109.746 119.287 103.544 125.49 103.544 133.6ZM195.144 119.287C187.034 119.287 180.831 125.49 180.831 133.6V143.142C180.831 151.252 187.034 157.454 195.144 157.454C203.254 157.454 209.456 151.252 209.456 143.142V133.6C209.456 125.49 203.254 119.287 195.144 119.287Z" fill="#817FCC"/>
</svg>
