<?xml version="1.0" standalone="no"?>
<!DOCTYPE svg PUBLIC "-//W3C//DTD SVG 20010904//EN"
 "http://www.w3.org/TR/2001/REC-SVG-20010904/DTD/svg10.dtd">
<svg version="1.0" xmlns="http://www.w3.org/2000/svg"
 width="700.000000pt" height="700.000000pt" viewBox="0 0 700.000000 700.000000"
 preserveAspectRatio="xMidYMid meet">
<metadata>
Created by potrace 1.14, written by Peter Selinger 2001-2017
</metadata>
<g transform="translate(0.000000,700.000000) scale(0.100000,-0.100000)"
fill="#000000" stroke="none">
<path d="M3290 5999 c-776 -68 -1468 -483 -1893 -1134 -538 -823 -538 -1907 0
-2730 310 -474 765 -829 1293 -1008 893 -302 1871 -84 2549 568 267 257 490
598 616 940 162 439 194 955 89 1425 -37 164 -60 231 -97 287 -102 153 -333
183 -472 61 -102 -90 -128 -215 -81 -388 103 -379 95 -743 -25 -1105 -190
-574 -655 -1026 -1233 -1202 -324 -98 -656 -105 -986 -22 -691 174 -1223 725
-1375 1424 -147 678 106 1386 655 1835 359 294 855 450 1308 411 267 -23 480
-83 722 -203 144 -72 146 -73 225 -73 65 1 91 5 136 26 196 91 245 342 99 502
-97 106 -459 263 -770 332 -230 52 -540 74 -760 54z"/>
<path d="M2534 4316 c-57 -18 -125 -67 -157 -113 -49 -72 -57 -111 -57 -299 0
-151 3 -180 21 -229 40 -107 147 -184 270 -193 136 -10 248 52 309 172 l35 69
0 181 0 181 -33 67 c-39 79 -93 129 -169 158 -62 23 -156 26 -219 6z"/>
<path d="M4244 4310 c-74 -30 -128 -81 -166 -158 l-33 -67 0 -181 0 -181 35
-69 c100 -195 358 -234 515 -78 72 73 85 122 85 329 0 151 -3 181 -21 229 -25
67 -86 133 -154 166 -69 33 -190 38 -261 10z"/>
<path d="M3393 3172 c-98 -35 -171 -111 -199 -209 -12 -42 -15 -91 -12 -221 3
-149 6 -173 26 -217 29 -63 83 -119 147 -153 44 -24 61 -27 145 -27 83 0 101
3 145 27 65 34 127 101 151 164 16 42 19 76 19 234 0 209 -7 238 -80 318 -79
88 -228 125 -342 84z"/>
</g>
</svg>
