<?xml version="1.0" standalone="no"?>
<!DOCTYPE svg PUBLIC "-//W3C//DTD SVG 20010904//EN"
 "http://www.w3.org/TR/2001/REC-SVG-20010904/DTD/svg10.dtd">
<svg version="1.0" xmlns="http://www.w3.org/2000/svg"
 width="1536.000000pt" height="1536.000000pt" viewBox="0 0 1536.000000 1536.000000"
 preserveAspectRatio="xMidYMid meet">
<metadata>
Created by potrace 1.14, written by Peter Selinger 2001-2017
</metadata>
<g transform="translate(0.000000,1536.000000) scale(0.100000,-0.100000)"
fill="#000000" stroke="none">
<path d="M1605 15349 c-637 -67 -1205 -489 -1461 -1087 -49 -115 -86 -236
-117 -385 l-21 -102 -3 -6015 c-3 -4261 -1 -6048 7 -6129 62 -656 479 -1226
1088 -1487 115 -49 236 -86 385 -117 l102 -21 6015 -3 c4261 -3 6048 -1 6129
7 656 62 1226 479 1487 1088 49 115 86 236 117 385 l21 102 3 6015 c3 4261 1
6048 -7 6129 -62 658 -479 1226 -1093 1489 -110 47 -233 84 -380 115 l-102 21
-6045 2 c-3325 1 -6081 -2 -6125 -7z m11790 -1504 c225 -58 405 -239 450 -453
22 -104 22 -1981 0 -2067 -58 -225 -239 -405 -453 -450 -58 -13 -858 -15
-5717 -15 -5043 0 -5657 2 -5710 15 -172 44 -318 158 -395 306 -72 138 -70
101 -70 1184 0 1073 -3 1018 65 1164 70 147 238 281 398 316 52 11 1010 14
5717 14 5048 1 5662 -1 5715 -14z m-6716 -4380 c152 -36 299 -148 369 -281 67
-128 62 170 62 -3691 0 -2503 -3 -3517 -11 -3555 -41 -197 -205 -367 -403
-418 -78 -20 -106 -20 -2390 -20 -2547 0 -2368 -4 -2505 62 -83 41 -194 149
-239 234 -67 128 -62 -170 -62 3691 0 2503 3 3517 11 3555 40 195 205 366 399
417 73 19 127 20 2390 20 2037 1 2323 -1 2379 -14z m6775 -5 c196 -50 348
-188 391 -356 14 -54 15 -212 13 -1361 l-3 -1300 -42 -85 c-65 -131 -157 -208
-323 -272 l-55 -21 -2210 -3 c-2458 -3 -2281 -8 -2425 65 -85 42 -173 121
-217 194 -67 111 -64 39 -61 1476 l3 1300 42 85 c66 132 175 223 328 271 28 9
61 18 75 20 14 2 1011 5 2216 6 2151 1 2192 1 2268 -19z m-4114 -4720 l0 -120
-152 0 c-84 0 -170 -5 -191 -11 -22 -6 -41 -8 -44 -6 -8 8 -84 219 -80 223 2
2 30 10 63 18 39 9 119 15 232 15 l172 1 0 -120z m1060 0 l0 -120 -265 0 -265
0 0 120 0 120 265 0 265 0 0 -120z m1050 0 l0 -120 -260 0 -260 0 0 120 0 120
260 0 260 0 0 -120z m1060 0 l0 -120 -265 0 -265 0 0 120 0 120 265 0 265 0 0
-120z m931 104 c58 -13 69 -19 64 -32 -4 -10 -23 -61 -42 -115 -29 -80 -39
-97 -52 -91 -9 4 -96 9 -193 12 l-178 4 0 119 0 119 166 0 c115 0 186 -5 235
-16z m-4748 -351 c73 -36 87 -47 81 -61 -5 -9 -10 -97 -12 -194 l-4 -178 -119
0 -119 0 0 179 c0 152 3 189 21 245 24 78 15 78 152 9z m5135 30 c26 -67 32
-119 32 -285 l0 -178 -119 0 -119 0 -5 178 c-2 97 -7 186 -10 197 -6 17 6 26
91 67 53 25 102 47 108 47 6 1 16 -11 22 -26z m-5068 -1343 l0 -290 -120 0
-120 0 0 290 0 290 120 0 120 0 0 -290z m5100 0 l0 -290 -120 0 -120 0 0 290
0 290 120 0 120 0 0 -290z m-5097 -1057 c2 -98 7 -187 10 -198 6 -17 -7 -26
-99 -70 -115 -54 -112 -54 -136 15 -6 20 -13 119 -15 233 l-5 197 120 0 120 0
5 -177z m5097 -2 c0 -152 -3 -189 -21 -245 -24 -78 -15 -78 -152 -9 -73 36
-87 47 -81 61 5 9 10 97 12 195 l4 177 119 0 119 0 0 -179z m-4697 -379 l177
-4 0 -119 0 -119 -166 0 c-191 0 -310 19 -299 48 4 10 23 61 42 115 29 80 39
97 52 91 9 -4 96 -9 194 -12z m4272 1 c12 -32 75 -205 75 -208 0 -2 -31 -11
-69 -19 -49 -11 -121 -16 -235 -16 l-166 0 0 120 0 120 158 1 c86 1 168 5 182
9 39 12 47 11 55 -7z m-3035 -123 l0 -120 -265 0 -265 0 0 120 0 120 265 0
265 0 0 -120z m1050 0 l0 -120 -260 0 -260 0 0 120 0 120 260 0 260 0 0 -120z
m1060 0 l0 -120 -265 0 -265 0 0 120 0 120 265 0 265 0 0 -120z"/>
</g>
</svg>
