<svg width="1144" height="452" viewBox="0 0 1144 452" fill="none" xmlns="http://www.w3.org/2000/svg">
<path d="M376.312 297V159.64H470.04V185.698H408.228V214.584H457.92V240.44H408.228V270.74H470.04V297H376.312ZM482.116 297V195.394H512.82V201.656C514.974 200.309 517.533 199.03 520.496 197.818C523.458 196.471 526.556 195.394 529.788 194.586C533.154 193.643 536.319 193.172 539.282 193.172C548.843 193.172 556.25 194.855 561.502 198.222C566.888 201.454 570.659 206.908 572.814 214.584C575.103 222.125 576.248 232.158 576.248 244.682V297H545.342V246.5C545.342 240.171 544.938 235.053 544.13 231.148C543.322 227.243 541.908 224.415 539.888 222.664C537.868 220.913 534.972 220.038 531.202 220.038C529.047 220.038 526.825 220.24 524.536 220.644C522.246 221.048 520.092 221.587 518.072 222.26C516.052 222.933 514.368 223.607 513.022 224.28V297H482.116ZM590.912 339.016V195.394H621.414L621.616 201.656C623.501 200.444 625.79 199.165 628.484 197.818C631.312 196.471 634.342 195.394 637.574 194.586C640.806 193.643 643.97 193.172 647.068 193.172C660.804 193.172 670.634 197.616 676.56 206.504C682.485 215.392 685.448 228.589 685.448 246.096C685.448 258.485 683.966 268.653 681.004 276.598C678.176 284.409 673.53 290.199 667.066 293.97C660.602 297.606 651.983 299.424 641.21 299.424C637.978 299.424 634.476 299.087 630.706 298.414C627.07 297.875 624.107 297.404 621.818 297V339.016H590.912ZM635.554 273.972C640.402 273.972 644.172 272.895 646.866 270.74C649.559 268.451 651.444 265.219 652.522 261.044C653.734 256.735 654.34 251.483 654.34 245.288C654.34 235.188 652.993 228.253 650.3 224.482C647.606 220.711 643.634 218.826 638.382 218.826C636.631 218.826 634.678 219.095 632.524 219.634C630.504 220.038 628.551 220.577 626.666 221.25C624.78 221.923 623.164 222.597 621.818 223.27V272.558C623.164 272.827 625.117 273.164 627.676 273.568C630.369 273.837 632.995 273.972 635.554 273.972ZM726.01 299.424C714.968 299.424 706.686 296.731 701.164 291.344C695.778 285.957 693.084 277.743 693.084 266.7C693.084 258.889 694.498 252.897 697.326 248.722C700.289 244.413 704.531 241.315 710.052 239.43C715.574 237.545 722.24 236.4 730.05 235.996L752.674 234.178V228.926C752.674 224.886 751.53 222.058 749.24 220.442C747.086 218.691 743.854 217.816 739.544 217.816C735.639 217.816 731.195 217.951 726.212 218.22C721.23 218.489 716.314 218.826 711.466 219.23C706.618 219.634 702.444 220.038 698.942 220.442L697.932 199.03C701.568 198.087 705.878 197.212 710.86 196.404C715.978 195.461 721.297 194.721 726.818 194.182C732.34 193.509 737.524 193.172 742.372 193.172C751.126 193.172 758.532 194.249 764.592 196.404C770.787 198.424 775.5 201.925 778.732 206.908C781.964 211.756 783.58 218.557 783.58 227.31V271.75C783.984 273.366 784.927 274.645 786.408 275.588C788.024 276.396 789.775 277.002 791.66 277.406L791.054 298.01C787.957 298.279 784.658 298.481 781.156 298.616C777.79 298.751 775.096 298.683 773.076 298.414C769.575 298.01 766.545 297.202 763.986 295.99C761.562 294.643 759.744 293.297 758.532 291.95C756.378 292.893 753.55 293.97 750.048 295.182C746.547 296.394 742.709 297.404 738.534 298.212C734.494 299.02 730.32 299.424 726.01 299.424ZM733.686 277.002C735.976 277.002 738.265 276.733 740.554 276.194C742.978 275.655 745.268 275.049 747.422 274.376C749.577 273.703 751.328 273.097 752.674 272.558V252.56L734.898 254.176C731.128 254.58 728.367 255.792 726.616 257.812C724.866 259.697 723.99 262.391 723.99 265.892C723.99 269.259 724.798 271.952 726.414 273.972C728.03 275.992 730.454 277.002 733.686 277.002ZM847.468 342.854C836.694 342.854 827.537 342.046 819.996 340.43C812.454 338.949 806.731 336.121 802.826 331.946C799.055 327.771 797.17 321.711 797.17 313.766C797.17 310.265 797.641 307.167 798.584 304.474C799.526 301.781 801.075 299.222 803.23 296.798C805.384 294.239 808.145 291.681 811.512 289.122C809.626 287.641 808.078 285.621 806.866 283.062C805.654 280.369 805.048 277.473 805.048 274.376C805.048 272.76 806.058 270.403 808.078 267.306C810.232 264.209 812.387 261.515 814.542 259.226C811.848 257.879 809.29 256.061 806.866 253.772C804.442 251.348 802.422 248.116 800.806 244.076C799.19 240.036 798.382 234.919 798.382 228.724C798.382 215.661 802.085 206.504 809.492 201.252C816.898 195.865 827.874 193.172 842.418 193.172C845.784 193.172 849.488 193.441 853.528 193.98C857.702 194.384 861.002 194.923 863.426 195.596L897.16 194.788V214.988L883.02 214.786C884.232 216.267 885.242 218.153 886.05 220.442C886.858 222.731 887.262 225.492 887.262 228.724C887.262 238.151 885.646 245.423 882.414 250.54C879.182 255.657 874.334 259.226 867.87 261.246C861.406 263.131 853.124 264.074 843.024 264.074C841.946 264.074 840.532 264.007 838.782 263.872C837.031 263.603 835.55 263.401 834.338 263.266C833.934 264.343 833.462 265.623 832.924 267.104C832.385 268.451 832.116 269.461 832.116 270.134C832.116 271.615 832.722 272.76 833.934 273.568C835.146 274.376 837.57 274.915 841.206 275.184C844.842 275.453 850.296 275.588 857.568 275.588C867.129 275.588 874.738 276.531 880.394 278.416C886.05 280.167 890.09 283.331 892.514 287.91C894.938 292.354 896.15 298.616 896.15 306.696C896.15 318.816 891.84 327.839 883.222 333.764C874.603 339.824 862.685 342.854 847.468 342.854ZM845.65 320.432C853.46 320.432 859.049 319.624 862.416 318.008C865.782 316.392 867.466 313.699 867.466 309.928C867.466 307.1 866.86 304.945 865.648 303.464C864.436 302.117 862.416 301.242 859.588 300.838C856.894 300.434 853.191 300.232 848.478 300.232C847.131 300.232 845.515 300.165 843.63 300.03C841.744 300.03 839.926 299.963 838.176 299.828C836.425 299.828 834.809 299.761 833.328 299.626C831.846 299.626 830.769 299.559 830.096 299.424C827.537 301.175 825.786 302.791 824.844 304.272C824.036 305.753 823.632 307.706 823.632 310.13C823.632 312.689 824.305 314.709 825.652 316.19C827.133 317.671 829.49 318.749 832.722 319.422C835.954 320.095 840.263 320.432 845.65 320.432ZM842.62 242.864C848.006 242.864 851.844 241.787 854.134 239.632C856.558 237.343 857.77 233.639 857.77 228.522C857.77 223.405 856.558 219.769 854.134 217.614C851.844 215.325 848.006 214.18 842.62 214.18C837.368 214.18 833.597 215.325 831.308 217.614C829.018 219.769 827.874 223.405 827.874 228.522C827.874 233.639 829.018 237.343 831.308 239.632C833.597 241.787 837.368 242.864 842.62 242.864ZM948.682 299.424C937.235 299.424 928.078 297.539 921.21 293.768C914.477 289.997 909.629 284.274 906.666 276.598C903.838 268.922 902.424 259.226 902.424 247.51C902.424 235.255 904.175 225.155 907.676 217.21C911.312 209.13 916.631 203.137 923.634 199.232C930.637 195.192 939.457 193.172 950.096 193.172C965.717 193.172 977.433 196.943 985.244 204.484C993.189 212.025 997.162 223.943 997.162 240.238L995.546 256.196H933.33C933.465 262.66 934.811 267.508 937.37 270.74C940.063 273.837 944.642 275.386 951.106 275.386C955.281 275.386 959.927 275.319 965.044 275.184C970.296 274.915 975.481 274.645 980.598 274.376C985.715 274.107 990.092 273.837 993.728 273.568L994.334 294.576C990.833 295.249 986.456 295.99 981.204 296.798C975.952 297.471 970.498 298.077 964.842 298.616C959.186 299.155 953.799 299.424 948.682 299.424ZM933.128 237.41H966.256C966.256 229.33 964.977 223.741 962.418 220.644C959.859 217.412 955.752 215.796 950.096 215.796C944.44 215.796 940.198 217.479 937.37 220.846C934.677 224.078 933.263 229.599 933.128 237.41Z" fill="#333333"/>
<path d="M272.475 187.671C265.209 189.942 261.575 197.663 263.846 204.929C266.117 212.65 267.479 220.825 267.479 229C267.479 272.6 231.6 308.479 188 308.479C144.4 308.479 108.521 272.6 108.521 229C108.521 185.4 144.4 149.521 188 149.521C202.079 149.521 215.704 153.154 227.513 159.967C233.871 163.6 242.5 161.329 246.134 154.971C249.767 148.613 247.496 139.983 241.138 136.35C225.242 127.267 206.621 122.271 188 122.271C128.958 122.271 81.271 169.958 81.271 229C81.271 288.042 128.958 335.729 188 335.729C247.042 335.729 294.729 288.042 294.729 229C294.729 218.1 292.913 206.746 289.734 196.3C287.463 189.488 279.742 185.4 272.475 187.671Z" fill="#817FCC"/>
<path d="M174.375 255.796V264.879C174.375 272.6 180.279 278.504 188 278.504C195.721 278.504 201.625 272.6 201.625 264.879V255.796C201.625 248.075 195.721 242.171 188 242.171C180.279 242.171 174.375 248.075 174.375 255.796ZM137.587 207.2V216.283C137.587 224.004 143.492 229.908 151.212 229.908C158.933 229.908 164.837 224.004 164.837 216.283V207.2C164.837 199.479 158.933 193.575 151.212 193.575C143.492 193.575 137.587 199.479 137.587 207.2ZM224.787 193.575C217.067 193.575 211.162 199.479 211.162 207.2V216.283C211.162 224.004 217.067 229.908 224.787 229.908C232.508 229.908 238.412 224.004 238.412 216.283V207.2C238.412 199.479 232.508 193.575 224.787 193.575Z" fill="#817FCC"/>
<path d="M922.952 416.017C920.205 416.017 918.145 415.262 916.772 413.751C915.399 412.24 914.712 410.695 914.712 409.116C914.712 407.262 915.055 405.854 915.742 404.893C916.429 403.932 917.768 403.211 919.759 402.73C922.368 402.181 925.081 401.494 927.896 400.67C930.78 399.846 933.527 398.988 936.136 398.095C938.814 397.134 941.149 396.172 943.14 395.211C945.131 394.181 946.573 393.22 947.466 392.327C946.367 391.709 944.616 390.988 942.213 390.164C939.81 389.271 937.132 388.241 934.179 387.074C931.295 385.838 928.514 384.396 925.836 382.748C923.158 381.1 920.961 379.177 919.244 376.98C917.527 374.783 916.669 372.276 916.669 369.461C916.669 365.547 917.665 361.873 919.656 358.44C921.647 355.007 924.291 351.814 927.587 348.861C930.883 345.908 934.454 343.196 938.299 340.724C942.213 338.252 946.093 336.02 949.938 334.029C953.852 331.969 957.354 330.149 960.444 328.57C961.611 327.883 962.71 327.437 963.74 327.231C964.839 326.956 965.834 326.819 966.727 326.819C969.817 326.819 971.946 327.574 973.113 329.085C974.28 330.596 974.864 332.141 974.864 333.72C974.864 334.819 974.349 336.123 973.319 337.634C972.289 339.076 970.641 340.415 968.375 341.651C966.178 342.887 963.259 343.78 959.62 344.329C959.002 344.398 958.453 344.466 957.972 344.535C955.225 345.908 952.273 347.556 949.114 349.479C945.955 351.402 942.968 353.427 940.153 355.556C937.406 357.616 935.14 359.676 933.355 361.736C931.57 363.796 930.677 365.65 930.677 367.298C930.677 369.152 931.432 370.834 932.943 372.345C934.454 373.787 936.376 375.126 938.711 376.362C941.114 377.529 943.621 378.662 946.23 379.761C948.908 380.86 951.414 381.993 953.749 383.16C956.152 384.259 958.109 385.495 959.62 386.868C961.131 388.241 961.886 389.786 961.886 391.503C961.886 393.838 961.096 396.069 959.517 398.198C957.938 400.327 955.878 402.318 953.337 404.172C950.796 405.957 948.015 407.571 944.994 409.013C941.973 410.455 938.986 411.691 936.033 412.721C933.149 413.82 930.54 414.644 928.205 415.193C925.87 415.742 924.119 416.017 922.952 416.017ZM973.444 418.283C971.452 418.283 969.873 417.734 968.706 416.635C967.607 415.605 967.058 414.129 967.058 412.206C967.058 410.421 967.538 408.91 968.5 407.674C969.461 406.369 971.315 405.133 974.062 403.966C974.268 403.897 974.474 403.829 974.68 403.76C972.963 403.417 971.761 402.455 971.075 400.876C970.457 399.297 970.148 397.477 970.148 395.417C970.148 394.25 970.354 392.361 970.766 389.752C971.178 387.143 971.693 384.156 972.311 380.791C972.929 377.426 973.581 374.096 974.268 370.8C974.954 367.435 975.538 364.483 976.019 361.942C977.323 356.105 979.006 350.955 981.066 346.492C983.126 342.029 985.907 338.561 989.409 336.089C992.911 333.548 997.408 332.278 1002.9 332.278C1007.09 332.278 1011.21 333.171 1015.26 334.956C1019.38 336.673 1023.12 339.11 1026.49 342.269C1029.85 345.428 1032.53 349.136 1034.52 353.393C1036.58 357.65 1037.61 362.32 1037.61 367.401C1037.61 373.169 1035.35 378.971 1030.81 384.808C1026.28 390.645 1019.93 396.241 1011.76 401.597C1003.66 406.884 994.181 411.657 983.332 415.914C981.546 416.601 979.933 417.15 978.491 417.562C977.117 418.043 975.435 418.283 973.444 418.283ZM982.302 400.773C992.258 396.79 1000.29 392.979 1006.4 389.34C1012.52 385.701 1016.94 381.855 1019.69 377.804C1022.51 373.753 1023.91 369.152 1023.91 364.002C1023.91 361.118 1022.95 358.371 1021.03 355.762C1019.11 353.153 1016.64 351.058 1013.61 349.479C1010.59 347.831 1007.4 347.007 1004.03 347.007C1000.4 347.007 997.477 348.483 995.28 351.436C993.082 354.32 991.331 359.264 990.027 366.268C989.409 369.083 988.756 372.139 988.07 375.435C987.452 378.662 986.834 381.787 986.216 384.808C985.666 387.761 985.186 390.233 984.774 392.224C984.43 394.215 984.224 395.383 984.156 395.726C983.812 397.786 983.194 399.468 982.302 400.773ZM1104.64 409.94C1104.64 411.863 1103.98 413.27 1102.68 414.163C1101.37 415.056 1099.66 415.536 1097.53 415.605C1095.12 415.605 1092.38 414.644 1089.29 412.721C1086.27 410.867 1083.07 408.361 1079.71 405.202C1076.34 402.043 1073.05 398.541 1069.82 394.696C1066.59 390.782 1063.61 386.868 1060.86 382.954C1059.07 390.301 1057.56 396.138 1056.33 400.464C1055.09 404.721 1053.86 407.777 1052.62 409.631C1051.45 411.485 1050.05 412.412 1048.4 412.412C1045.99 412.412 1044.38 411.382 1043.56 409.322C1042.73 407.193 1042.32 404.653 1042.32 401.7C1042.32 399.64 1042.46 397.546 1042.73 395.417C1043.08 393.22 1043.59 390.645 1044.28 387.692C1044.96 384.671 1045.89 380.928 1047.06 376.465C1045.55 375.023 1044.79 373.409 1044.79 371.624C1044.79 370.319 1045.14 369.049 1045.82 367.813C1046.58 366.508 1047.99 365.444 1050.05 364.62C1051.97 358.303 1053.62 353.153 1054.99 349.17C1056.36 345.119 1057.6 341.994 1058.7 339.797C1059.8 337.6 1060.79 336.089 1061.68 335.265C1062.65 334.441 1063.64 334.029 1064.67 334.029C1066.59 334.029 1068.07 334.578 1069.1 335.677C1070.13 336.776 1070.65 338.698 1070.65 341.445C1070.65 342.475 1070.34 344.569 1069.72 347.728C1069.17 350.818 1068.1 355.384 1066.53 361.427C1072.57 356.758 1078.13 352.157 1083.21 347.625C1088.29 343.093 1092.72 338.973 1096.5 335.265C1100.34 331.557 1103.47 328.604 1105.87 326.407C1108.27 324.21 1109.82 323.111 1110.51 323.111C1112.5 323.111 1114.08 323.763 1115.24 325.068C1116.48 326.304 1117.1 327.712 1117.1 329.291C1117.1 330.87 1116.41 332.518 1115.04 334.235C1113.53 336.02 1111.5 338.286 1108.96 341.033C1106.42 343.78 1103.57 346.767 1100.41 349.994C1097.25 353.153 1093.92 356.311 1090.42 359.47C1086.92 362.56 1083.38 365.375 1079.81 367.916C1076.31 370.457 1072.91 372.448 1069.62 373.89C1070.3 374.577 1071.02 375.366 1071.78 376.259C1072.6 377.083 1073.46 378.01 1074.35 379.04C1076.69 381.581 1079.47 384.396 1082.7 387.486C1085.92 390.507 1089.22 393.494 1092.58 396.447C1096.02 399.331 1099.11 401.872 1101.85 404.069C1102.82 404.962 1103.5 405.854 1103.91 406.747C1104.39 407.571 1104.64 408.635 1104.64 409.94Z" fill="#817FCC"/>
</svg>
