<svg width="459" height="123" viewBox="0 0 459 123" fill="none" xmlns="http://www.w3.org/2000/svg">
<path d="M168.033 25.6121H185.575L177.798 72.5226C176.899 77.944 174.827 82.667 171.584 86.6916C168.364 90.6926 164.257 93.7939 159.261 95.9956C154.266 98.1736 148.703 99.2627 142.571 99.2627C136.416 99.2627 131.219 98.1736 126.981 95.9956C122.744 93.7939 119.678 90.6926 117.784 86.6916C115.89 82.667 115.381 77.944 116.257 72.5226L124.034 25.6121H141.612L134.048 70.9956C133.646 73.5051 133.835 75.7423 134.616 77.7073C135.421 79.6485 136.723 81.1874 138.523 82.3237C140.322 83.4364 142.524 83.9928 145.128 83.9928C147.756 83.9928 150.159 83.4364 152.337 82.3237C154.515 81.1874 156.314 79.6485 157.734 77.7073C159.155 75.7423 160.066 73.5051 160.469 70.9956L168.033 25.6121ZM176.216 118.794L188.787 43.7939H205.975L204.448 53.1334H204.98C205.927 51.4762 207.182 49.8782 208.745 48.3394C210.331 46.8005 212.237 45.5458 214.462 44.5751C216.687 43.5808 219.232 43.0837 222.097 43.0837C225.885 43.0837 229.258 44.078 232.218 46.0666C235.177 48.0553 237.331 51.1211 238.681 55.2641C240.03 59.4071 240.172 64.6864 239.107 71.1021C238.089 77.2811 236.242 82.4539 233.567 86.6206C230.916 90.7873 227.767 93.9123 224.121 95.9956C220.475 98.0789 216.652 99.1206 212.651 99.1206C209.905 99.1206 207.585 98.6708 205.691 97.7712C203.82 96.8716 202.341 95.6878 201.252 94.22C200.163 92.7522 199.405 91.1779 198.979 89.497H198.482L193.652 118.794H176.216ZM201.252 71.0666C200.778 74.0022 200.755 76.5591 201.181 78.7371C201.607 80.9151 202.471 82.6078 203.773 83.8152C205.099 84.9989 206.815 85.5908 208.922 85.5908C211.053 85.5908 212.947 84.9989 214.604 83.8152C216.285 82.6078 217.693 80.9151 218.83 78.7371C219.966 76.5591 220.795 74.0022 221.316 71.0666C221.765 68.131 221.777 65.586 221.351 63.4317C220.949 61.2773 220.108 59.6083 218.83 58.4246C217.551 57.2409 215.835 56.649 213.681 56.649C211.574 56.649 209.656 57.229 207.928 58.3891C206.223 59.5491 204.803 61.2063 203.666 63.3607C202.53 65.515 201.725 68.0837 201.252 71.0666ZM292.479 60.4487L276.818 60.8749C276.842 59.7148 276.581 58.6968 276.037 57.8209C275.492 56.9213 274.723 56.2229 273.729 55.7257C272.734 55.2286 271.551 54.98 270.177 54.98C267.952 54.98 265.952 55.4771 264.176 56.4715C262.424 57.4658 261.442 58.756 261.229 60.3422C261.063 61.1945 261.3 61.9402 261.939 62.5794C262.578 63.1949 263.999 63.7394 266.2 64.2129L276.427 66.2016C281.683 67.2432 285.495 69.0543 287.862 71.6348C290.253 74.1916 291.106 77.577 290.419 81.7911C289.803 85.3895 288.217 88.5027 285.66 91.1305C283.127 93.7584 279.896 95.7944 275.966 97.2385C272.06 98.659 267.739 99.3692 263.004 99.3692C255.002 99.3692 248.965 97.7593 244.893 94.5396C240.845 91.2963 238.951 86.9994 239.212 81.649L256.115 81.2229C256.186 83.2352 256.861 84.7503 258.139 85.7683C259.441 86.7627 261.205 87.2835 263.43 87.3308C265.869 87.3782 267.976 86.8692 269.751 85.8038C271.527 84.7385 272.521 83.4246 272.734 81.8621C272.876 80.8441 272.533 80.051 271.704 79.4828C270.9 78.9146 269.396 78.4056 267.195 77.9558L257.962 76.1448C252.659 75.1268 248.823 73.2091 246.456 70.3919C244.112 67.551 243.307 63.9288 244.041 59.5254C244.657 56.0216 246.101 53.0505 248.374 50.6121C250.67 48.15 253.665 46.2797 257.358 45.0013C261.075 43.7229 265.312 43.0837 270.071 43.0837C277.694 43.0837 283.447 44.6343 287.329 47.7357C291.236 50.8133 292.952 55.051 292.479 60.4487ZM331.078 43.7939L328.911 56.578H294.501L296.667 43.7939H331.078ZM306.007 30.7257H323.372L314.991 81.1874C314.825 82.2527 314.849 83.1168 315.062 83.7797C315.299 84.4189 315.725 84.8805 316.34 85.1646C316.98 85.4251 317.761 85.5553 318.684 85.5553C319.323 85.5553 320.034 85.4842 320.815 85.3422C321.596 85.2002 322.188 85.0936 322.59 85.0226L323.159 97.5581C322.235 97.8185 320.992 98.1145 319.43 98.4459C317.891 98.801 316.092 99.0259 314.032 99.1206C309.866 99.2863 306.421 98.801 303.698 97.6646C301 96.5046 299.094 94.7054 297.981 92.2669C296.892 89.8285 296.679 86.7745 297.342 83.105L306.007 30.7257ZM341.081 99.2627C337.625 99.2627 334.642 98.6826 332.132 97.5226C329.647 96.3389 327.824 94.5515 326.664 92.1604C325.527 89.7693 325.255 86.7863 325.847 83.2115C326.368 80.1812 327.327 77.6362 328.723 75.5766C330.144 73.4932 331.884 71.8005 333.943 70.4984C336.027 69.1964 338.347 68.202 340.904 67.5155C343.461 66.8289 346.136 66.3673 348.929 66.1305C352.054 65.8465 354.587 65.5387 356.529 65.2073C358.494 64.8758 359.961 64.4142 360.932 63.8223C361.903 63.2068 362.495 62.3545 362.708 61.2655V61.0879C362.992 59.265 362.601 57.8564 361.536 56.8621C360.47 55.8678 358.872 55.3706 356.742 55.3706C354.469 55.3706 352.528 55.8678 350.918 56.8621C349.308 57.8564 348.184 59.2295 347.544 60.9814L331.635 60.4132C332.63 57.0988 334.334 54.1395 336.749 51.5354C339.164 48.9075 342.229 46.8479 345.946 45.3564C349.687 43.8412 354.007 43.0837 358.908 43.0837C362.364 43.0837 365.489 43.498 368.283 44.3266C371.077 45.1315 373.432 46.3152 375.35 47.8777C377.291 49.4165 378.676 51.3105 379.505 53.5595C380.333 55.8086 380.511 58.3772 380.037 61.2655L373.823 98.3394H357.487L358.766 90.7399H358.34C357.061 92.5865 355.558 94.149 353.83 95.4274C352.125 96.7058 350.208 97.6646 348.077 98.3038C345.946 98.943 343.614 99.2627 341.081 99.2627ZM348.397 87.899C350.22 87.899 351.948 87.5202 353.581 86.7627C355.215 86.0051 356.588 84.9634 357.701 83.6377C358.837 82.2882 359.559 80.7257 359.867 78.9502L360.684 73.7655C360.186 74.0259 359.559 74.2627 358.801 74.4757C358.044 74.6888 357.239 74.89 356.387 75.0794C355.534 75.2451 354.658 75.4109 353.759 75.5766C352.883 75.7186 352.042 75.8488 351.237 75.9672C349.533 76.2276 348.053 76.6301 346.799 77.1746C345.544 77.7191 344.538 78.4293 343.78 79.3053C343.046 80.1575 342.596 81.1755 342.431 82.3592C342.147 84.1348 342.561 85.5079 343.674 86.4786C344.786 87.4255 346.361 87.899 348.397 87.899ZM379.441 98.3394L388.532 43.7939H405.399L403.73 53.7371H404.299C405.885 50.1386 407.956 47.4634 410.513 45.7115C413.07 43.9359 415.84 43.0482 418.823 43.0482C419.628 43.0482 420.433 43.1073 421.237 43.2257C422.066 43.3204 422.847 43.4625 423.581 43.6519L421.024 58.7797C420.22 58.4719 419.166 58.247 417.864 58.105C416.562 57.9393 415.378 57.8564 414.313 57.8564C412.253 57.8564 410.336 58.318 408.56 59.2413C406.808 60.141 405.317 61.4075 404.086 63.0411C402.878 64.6509 402.085 66.5448 401.706 68.7229L396.806 98.3394H379.441ZM458.949 43.7939L456.783 56.578H422.372L424.538 43.7939H458.949ZM433.878 30.7257H451.243L442.862 81.1874C442.696 82.2527 442.72 83.1168 442.933 83.7797C443.17 84.4189 443.596 84.8805 444.212 85.1646C444.851 85.4251 445.632 85.5553 446.555 85.5553C447.195 85.5553 447.905 85.4842 448.686 85.3422C449.467 85.2002 450.059 85.0936 450.462 85.0226L451.03 97.5581C450.106 97.8185 448.864 98.1145 447.301 98.4459C445.762 98.801 443.963 99.0259 441.903 99.1206C437.737 99.2863 434.292 98.801 431.57 97.6646C428.871 96.5046 426.965 94.7054 425.852 92.2669C424.763 89.8285 424.55 86.7745 425.213 83.105L433.878 30.7257Z" fill="url(#paint0_linear_2001_3)"/>
<path d="M168.033 25.6121H185.575L177.798 72.5226C176.899 77.944 174.827 82.667 171.584 86.6916C168.364 90.6926 164.257 93.7939 159.261 95.9956C154.266 98.1736 148.703 99.2627 142.571 99.2627C136.416 99.2627 131.219 98.1736 126.981 95.9956C122.744 93.7939 119.678 90.6926 117.784 86.6916C115.89 82.667 115.381 77.944 116.257 72.5226L124.034 25.6121H141.612L134.048 70.9956C133.646 73.5051 133.835 75.7423 134.616 77.7073C135.421 79.6485 136.723 81.1874 138.523 82.3237C140.322 83.4364 142.524 83.9928 145.128 83.9928C147.756 83.9928 150.159 83.4364 152.337 82.3237C154.515 81.1874 156.314 79.6485 157.734 77.7073C159.155 75.7423 160.066 73.5051 160.469 70.9956L168.033 25.6121ZM176.216 118.794L188.787 43.7939H205.975L204.448 53.1334H204.98C205.927 51.4762 207.182 49.8782 208.745 48.3394C210.331 46.8005 212.237 45.5458 214.462 44.5751C216.687 43.5808 219.232 43.0837 222.097 43.0837C225.885 43.0837 229.258 44.078 232.218 46.0666C235.177 48.0553 237.331 51.1211 238.681 55.2641C240.03 59.4071 240.172 64.6864 239.107 71.1021C238.089 77.2811 236.242 82.4539 233.567 86.6206C230.916 90.7873 227.767 93.9123 224.121 95.9956C220.475 98.0789 216.652 99.1206 212.651 99.1206C209.905 99.1206 207.585 98.6708 205.691 97.7712C203.82 96.8716 202.341 95.6878 201.252 94.22C200.163 92.7522 199.405 91.1779 198.979 89.497H198.482L193.652 118.794H176.216ZM201.252 71.0666C200.778 74.0022 200.755 76.5591 201.181 78.7371C201.607 80.9151 202.471 82.6078 203.773 83.8152C205.099 84.9989 206.815 85.5908 208.922 85.5908C211.053 85.5908 212.947 84.9989 214.604 83.8152C216.285 82.6078 217.693 80.9151 218.83 78.7371C219.966 76.5591 220.795 74.0022 221.316 71.0666C221.765 68.131 221.777 65.586 221.351 63.4317C220.949 61.2773 220.108 59.6083 218.83 58.4246C217.551 57.2409 215.835 56.649 213.681 56.649C211.574 56.649 209.656 57.229 207.928 58.3891C206.223 59.5491 204.803 61.2063 203.666 63.3607C202.53 65.515 201.725 68.0837 201.252 71.0666ZM292.479 60.4487L276.818 60.8749C276.842 59.7148 276.581 58.6968 276.037 57.8209C275.492 56.9213 274.723 56.2229 273.729 55.7257C272.734 55.2286 271.551 54.98 270.177 54.98C267.952 54.98 265.952 55.4771 264.176 56.4715C262.424 57.4658 261.442 58.756 261.229 60.3422C261.063 61.1945 261.3 61.9402 261.939 62.5794C262.578 63.1949 263.999 63.7394 266.2 64.2129L276.427 66.2016C281.683 67.2432 285.495 69.0543 287.862 71.6348C290.253 74.1916 291.106 77.577 290.419 81.7911C289.803 85.3895 288.217 88.5027 285.66 91.1305C283.127 93.7584 279.896 95.7944 275.966 97.2385C272.06 98.659 267.739 99.3692 263.004 99.3692C255.002 99.3692 248.965 97.7593 244.893 94.5396C240.845 91.2963 238.951 86.9994 239.212 81.649L256.115 81.2229C256.186 83.2352 256.861 84.7503 258.139 85.7683C259.441 86.7627 261.205 87.2835 263.43 87.3308C265.869 87.3782 267.976 86.8692 269.751 85.8038C271.527 84.7385 272.521 83.4246 272.734 81.8621C272.876 80.8441 272.533 80.051 271.704 79.4828C270.9 78.9146 269.396 78.4056 267.195 77.9558L257.962 76.1448C252.659 75.1268 248.823 73.2091 246.456 70.3919C244.112 67.551 243.307 63.9288 244.041 59.5254C244.657 56.0216 246.101 53.0505 248.374 50.6121C250.67 48.15 253.665 46.2797 257.358 45.0013C261.075 43.7229 265.312 43.0837 270.071 43.0837C277.694 43.0837 283.447 44.6343 287.329 47.7357C291.236 50.8133 292.952 55.051 292.479 60.4487ZM331.078 43.7939L328.911 56.578H294.501L296.667 43.7939H331.078ZM306.007 30.7257H323.372L314.991 81.1874C314.825 82.2527 314.849 83.1168 315.062 83.7797C315.299 84.4189 315.725 84.8805 316.34 85.1646C316.98 85.4251 317.761 85.5553 318.684 85.5553C319.323 85.5553 320.034 85.4842 320.815 85.3422C321.596 85.2002 322.188 85.0936 322.59 85.0226L323.159 97.5581C322.235 97.8185 320.992 98.1145 319.43 98.4459C317.891 98.801 316.092 99.0259 314.032 99.1206C309.866 99.2863 306.421 98.801 303.698 97.6646C301 96.5046 299.094 94.7054 297.981 92.2669C296.892 89.8285 296.679 86.7745 297.342 83.105L306.007 30.7257ZM341.081 99.2627C337.625 99.2627 334.642 98.6826 332.132 97.5226C329.647 96.3389 327.824 94.5515 326.664 92.1604C325.527 89.7693 325.255 86.7863 325.847 83.2115C326.368 80.1812 327.327 77.6362 328.723 75.5766C330.144 73.4932 331.884 71.8005 333.943 70.4984C336.027 69.1964 338.347 68.202 340.904 67.5155C343.461 66.8289 346.136 66.3673 348.929 66.1305C352.054 65.8465 354.587 65.5387 356.529 65.2073C358.494 64.8758 359.961 64.4142 360.932 63.8223C361.903 63.2068 362.495 62.3545 362.708 61.2655V61.0879C362.992 59.265 362.601 57.8564 361.536 56.8621C360.47 55.8678 358.872 55.3706 356.742 55.3706C354.469 55.3706 352.528 55.8678 350.918 56.8621C349.308 57.8564 348.184 59.2295 347.544 60.9814L331.635 60.4132C332.63 57.0988 334.334 54.1395 336.749 51.5354C339.164 48.9075 342.229 46.8479 345.946 45.3564C349.687 43.8412 354.007 43.0837 358.908 43.0837C362.364 43.0837 365.489 43.498 368.283 44.3266C371.077 45.1315 373.432 46.3152 375.35 47.8777C377.291 49.4165 378.676 51.3105 379.505 53.5595C380.333 55.8086 380.511 58.3772 380.037 61.2655L373.823 98.3394H357.487L358.766 90.7399H358.34C357.061 92.5865 355.558 94.149 353.83 95.4274C352.125 96.7058 350.208 97.6646 348.077 98.3038C345.946 98.943 343.614 99.2627 341.081 99.2627ZM348.397 87.899C350.22 87.899 351.948 87.5202 353.581 86.7627C355.215 86.0051 356.588 84.9634 357.701 83.6377C358.837 82.2882 359.559 80.7257 359.867 78.9502L360.684 73.7655C360.186 74.0259 359.559 74.2627 358.801 74.4757C358.044 74.6888 357.239 74.89 356.387 75.0794C355.534 75.2451 354.658 75.4109 353.759 75.5766C352.883 75.7186 352.042 75.8488 351.237 75.9672C349.533 76.2276 348.053 76.6301 346.799 77.1746C345.544 77.7191 344.538 78.4293 343.78 79.3053C343.046 80.1575 342.596 81.1755 342.431 82.3592C342.147 84.1348 342.561 85.5079 343.674 86.4786C344.786 87.4255 346.361 87.899 348.397 87.899ZM379.441 98.3394L388.532 43.7939H405.399L403.73 53.7371H404.299C405.885 50.1386 407.956 47.4634 410.513 45.7115C413.07 43.9359 415.84 43.0482 418.823 43.0482C419.628 43.0482 420.433 43.1073 421.237 43.2257C422.066 43.3204 422.847 43.4625 423.581 43.6519L421.024 58.7797C420.22 58.4719 419.166 58.247 417.864 58.105C416.562 57.9393 415.378 57.8564 414.313 57.8564C412.253 57.8564 410.336 58.318 408.56 59.2413C406.808 60.141 405.317 61.4075 404.086 63.0411C402.878 64.6509 402.085 66.5448 401.706 68.7229L396.806 98.3394H379.441ZM458.949 43.7939L456.783 56.578H422.372L424.538 43.7939H458.949ZM433.878 30.7257H451.243L442.862 81.1874C442.696 82.2527 442.72 83.1168 442.933 83.7797C443.17 84.4189 443.596 84.8805 444.212 85.1646C444.851 85.4251 445.632 85.5553 446.555 85.5553C447.195 85.5553 447.905 85.4842 448.686 85.3422C449.467 85.2002 450.059 85.0936 450.462 85.0226L451.03 97.5581C450.106 97.8185 448.864 98.1145 447.301 98.4459C445.762 98.801 443.963 99.0259 441.903 99.1206C437.737 99.2863 434.292 98.801 431.57 97.6646C428.871 96.5046 426.965 94.7054 425.852 92.2669C424.763 89.8285 424.55 86.7745 425.213 83.105L433.878 30.7257Z" fill="#F5F5F5"/>
<path d="M22.0281 87.4005L22.3189 90.4549L62.9675 100.025L64.5906 97.4214C65.6335 95.7639 66.5927 94.0552 67.4646 92.3017L86.2287 96.7196L89.6964 81.9912L75.6892 66.881C77.4612 57.7023 77.3952 48.2632 75.4951 39.1101C73.595 29.957 69.8984 21.2716 64.6194 13.5565L62.5296 10.8689L59.4603 12.3419C51.2937 16.8912 44.1105 23.0151 38.3262 30.359C32.542 37.7029 28.2718 46.121 25.7625 55.1262L6.48526 62.3999L3.0176 77.1282L21.7817 81.5461C21.7662 83.5004 21.8485 85.4543 22.0281 87.4005ZM79.8667 86.4393L70.7967 84.3039C71.6561 81.9593 72.4201 79.4606 73.162 76.8688L80.1509 84.4863L79.8667 86.4393ZM59.924 21.936C68.0848 36.5806 70.3179 53.7974 66.1632 70.0394C64.6354 77.0763 62.1915 83.8825 58.8939 90.2838L30.3524 83.564C30.2572 76.3638 31.1065 69.1822 32.8788 62.2029C36.3532 45.7906 46.0453 31.3602 59.924 21.936ZM13.2978 70.7663L13.7484 68.8524L23.4018 65.1532C22.7846 67.7743 22.4783 70.3808 22.2014 72.8625L13.2978 70.7663Z" fill="#F5F5F5" stroke="#F5F5F5" stroke-width="2"/>
<path d="M53.3552 51.5905L53.8923 61.0203L63.0266 63.4234L54.2243 66.8482L54.7615 76.278L48.7842 68.9649L39.982 72.3897L45.0901 64.4451L39.1128 57.132L48.2471 59.5351L53.3552 51.5905Z" fill="url(#paint1_linear_2001_3)"/>
<defs>
<linearGradient id="paint0_linear_2001_3" x1="111.001" y1="61.8394" x2="458.001" y2="61.8394" gradientUnits="userSpaceOnUse">
<stop stop-color="#7763C0"/>
<stop offset="1" stop-color="#8775C7"/>
</linearGradient>
<linearGradient id="paint1_linear_2001_3" x1="53.3552" y1="51.5905" x2="42.3398" y2="75.5773" gradientUnits="userSpaceOnUse">
<stop stop-color="#FFAD33"/>
<stop offset="1" stop-color="#FF9900"/>
</linearGradient>
</defs>
</svg>
