<svg width="459" height="123" viewBox="0 0 459 123" fill="none" xmlns="http://www.w3.org/2000/svg">
<path d="M168.031 26.2727H185.574L177.797 73.1832C176.897 78.6046 174.826 83.3277 171.582 87.3523C168.363 91.3532 164.255 94.4545 159.26 96.6562C154.265 98.8343 148.701 99.9233 142.569 99.9233C136.414 99.9233 131.218 98.8343 126.98 96.6562C122.742 94.4545 119.676 91.3532 117.783 87.3523C115.889 83.3277 115.38 78.6046 116.256 73.1832L124.033 26.2727H141.611L134.047 71.6562C133.644 74.1657 133.834 76.4029 134.615 78.3679C135.42 80.3092 136.722 81.848 138.521 82.9844C140.32 84.0971 142.522 84.6534 145.126 84.6534C147.754 84.6534 150.157 84.0971 152.335 82.9844C154.513 81.848 156.312 80.3092 157.733 78.3679C159.153 76.4029 160.065 74.1657 160.467 71.6562L168.031 26.2727ZM176.215 119.455L188.786 44.4545H205.973L204.446 53.794H204.979C205.926 52.1368 207.181 50.5388 208.743 49C210.329 47.4612 212.235 46.2064 214.46 45.2358C216.686 44.2415 219.231 43.7443 222.095 43.7443C225.883 43.7443 229.257 44.7386 232.216 46.7273C235.175 48.7159 237.33 51.7817 238.679 55.9247C240.029 60.0677 240.171 65.3471 239.105 71.7628C238.087 77.9418 236.241 83.1146 233.566 87.2812C230.914 91.4479 227.765 94.5729 224.12 96.6562C220.474 98.7396 216.65 99.7812 212.649 99.7812C209.903 99.7812 207.583 99.3314 205.689 98.4318C203.819 97.5322 202.339 96.3485 201.25 94.8807C200.161 93.4129 199.404 91.8385 198.978 90.1577H198.48L193.651 119.455H176.215ZM201.25 71.7273C200.777 74.6629 200.753 77.2197 201.179 79.3977C201.605 81.5758 202.469 83.2685 203.772 84.4759C205.097 85.6596 206.814 86.2514 208.921 86.2514C211.051 86.2514 212.945 85.6596 214.603 84.4759C216.283 83.2685 217.692 81.5758 218.828 79.3977C219.965 77.2197 220.793 74.6629 221.314 71.7273C221.764 68.7917 221.776 66.2467 221.35 64.0923C220.947 61.938 220.107 60.2689 218.828 59.0852C217.55 57.9015 215.834 57.3097 213.679 57.3097C211.572 57.3097 209.655 57.8897 207.926 59.0497C206.222 60.2098 204.801 61.867 203.665 64.0213C202.529 66.1757 201.724 68.7443 201.25 71.7273ZM292.477 61.1094L276.817 61.5355C276.84 60.3755 276.58 59.3575 276.035 58.4815C275.491 57.5819 274.721 56.8835 273.727 56.3864C272.733 55.8892 271.549 55.6406 270.176 55.6406C267.951 55.6406 265.95 56.1378 264.175 57.1321C262.423 58.1264 261.44 59.4167 261.227 61.0028C261.061 61.8551 261.298 62.6009 261.937 63.2401C262.577 63.8556 263.997 64.4001 266.199 64.8736L276.426 66.8622C281.682 67.9039 285.493 69.715 287.861 72.2955C290.252 74.8523 291.104 78.2377 290.417 82.4517C289.802 86.0502 288.216 89.1634 285.659 91.7912C283.126 94.419 279.894 96.455 275.964 97.8991C272.058 99.3196 267.738 100.03 263.003 100.03C255.001 100.03 248.964 98.42 244.892 95.2003C240.844 91.9569 238.95 87.66 239.21 82.3097L256.114 81.8835C256.185 83.8958 256.859 85.411 258.138 86.429C259.44 87.4233 261.203 87.9441 263.429 87.9915C265.867 88.0388 267.974 87.5298 269.75 86.4645C271.525 85.3991 272.52 84.0852 272.733 82.5227C272.875 81.5047 272.532 80.7116 271.703 80.1435C270.898 79.5753 269.395 79.0663 267.193 78.6165L257.96 76.8054C252.657 75.7874 248.822 73.8698 246.454 71.0526C244.111 68.2116 243.306 64.5895 244.04 60.1861C244.655 56.6823 246.099 53.7112 248.372 51.2727C250.668 48.8106 253.663 46.9403 257.356 45.6619C261.073 44.3835 265.311 43.7443 270.069 43.7443C277.693 43.7443 283.445 45.295 287.328 48.3963C291.234 51.474 292.951 55.7116 292.477 61.1094ZM331.076 44.4545L328.91 57.2386H294.5L296.666 44.4545H331.076ZM306.005 31.3864H323.37L314.99 81.848C314.824 82.9134 314.848 83.7775 315.061 84.4403C315.297 85.0795 315.723 85.5412 316.339 85.8253C316.978 86.0857 317.759 86.2159 318.683 86.2159C319.322 86.2159 320.032 86.1449 320.813 86.0028C321.595 85.8608 322.187 85.7543 322.589 85.6832L323.157 98.2188C322.234 98.4792 320.991 98.7751 319.428 99.1065C317.89 99.4616 316.09 99.6866 314.031 99.7812C309.864 99.947 306.42 99.4616 303.697 98.3253C300.998 97.1652 299.092 95.366 297.98 92.9276C296.891 90.4891 296.678 87.4351 297.34 83.7656L306.005 31.3864ZM341.08 99.9233C337.623 99.9233 334.64 99.3433 332.131 98.1832C329.645 96.9995 327.822 95.2121 326.662 92.821C325.526 90.4299 325.254 87.447 325.845 83.8722C326.366 80.8419 327.325 78.2969 328.722 76.2372C330.142 74.1539 331.882 72.4612 333.942 71.1591C336.025 69.857 338.345 68.8627 340.902 68.1761C343.459 67.4896 346.134 67.0279 348.928 66.7912C352.053 66.5071 354.586 66.1993 356.527 65.8679C358.492 65.5365 359.96 65.0748 360.931 64.483C361.901 63.8674 362.493 63.0152 362.706 61.9261V61.7486C362.99 59.9257 362.6 58.517 361.534 57.5227C360.469 56.5284 358.871 56.0312 356.74 56.0312C354.468 56.0312 352.526 56.5284 350.916 57.5227C349.307 58.517 348.182 59.8902 347.543 61.642L331.634 61.0739C332.628 57.7595 334.333 54.8002 336.747 52.196C339.162 49.5682 342.228 47.5085 345.945 46.017C349.685 44.5019 354.006 43.7443 358.906 43.7443C362.363 43.7443 365.488 44.1586 368.281 44.9872C371.075 45.7921 373.431 46.9759 375.348 48.5384C377.29 50.0772 378.674 51.9711 379.503 54.2202C380.332 56.4692 380.509 59.0379 380.036 61.9261L373.821 99H357.486L358.764 91.4006H358.338C357.06 93.2472 355.557 94.8097 353.828 96.0881C352.124 97.3665 350.206 98.3253 348.076 98.9645C345.945 99.6037 343.613 99.9233 341.08 99.9233ZM348.395 88.5597C350.218 88.5597 351.946 88.1809 353.58 87.4233C355.213 86.6657 356.586 85.6241 357.699 84.2983C358.835 82.9489 359.558 81.3864 359.865 79.6108L360.682 74.4261C360.185 74.6866 359.558 74.9233 358.8 75.1364C358.042 75.3494 357.237 75.5507 356.385 75.7401C355.533 75.9058 354.657 76.0715 353.757 76.2372C352.881 76.3793 352.041 76.5095 351.236 76.6278C349.531 76.8883 348.052 77.2907 346.797 77.8352C345.542 78.3797 344.536 79.09 343.779 79.9659C343.045 80.8182 342.595 81.8362 342.429 83.0199C342.145 84.7955 342.559 86.1686 343.672 87.1392C344.785 88.0862 346.359 88.5597 348.395 88.5597ZM379.439 99L388.53 44.4545H405.398L403.729 54.3977H404.297C405.883 50.7992 407.955 48.1241 410.512 46.3722C413.068 44.5966 415.838 43.7088 418.821 43.7088C419.626 43.7088 420.431 43.768 421.236 43.8864C422.065 43.9811 422.846 44.1231 423.58 44.3125L421.023 59.4403C420.218 59.1326 419.165 58.9077 417.862 58.7656C416.56 58.5999 415.377 58.517 414.311 58.517C412.252 58.517 410.334 58.9787 408.558 59.902C406.807 60.8016 405.315 62.0682 404.084 63.7017C402.877 65.3116 402.084 67.2055 401.705 69.3835L396.804 99H379.439ZM458.947 44.4545L456.781 57.2386H422.371L424.537 44.4545H458.947ZM433.876 31.3864H451.241L442.861 81.848C442.695 82.9134 442.719 83.7775 442.932 84.4403C443.168 85.0795 443.595 85.5412 444.21 85.8253C444.849 86.0857 445.631 86.2159 446.554 86.2159C447.193 86.2159 447.903 86.1449 448.685 86.0028C449.466 85.8608 450.058 85.7543 450.46 85.6832L451.028 98.2188C450.105 98.4792 448.862 98.7751 447.3 99.1065C445.761 99.4616 443.962 99.6866 441.902 99.7812C437.735 99.947 434.291 99.4616 431.568 98.3253C428.869 97.1652 426.963 95.366 425.851 92.9276C424.762 90.4891 424.549 87.4351 425.212 83.7656L433.876 31.3864Z" fill="url(#paint0_linear_2003_3)"/>
<path d="M168.031 26.2727H185.574L177.797 73.1832C176.897 78.6046 174.826 83.3277 171.582 87.3523C168.363 91.3532 164.255 94.4545 159.26 96.6562C154.265 98.8343 148.701 99.9233 142.569 99.9233C136.414 99.9233 131.218 98.8343 126.98 96.6562C122.742 94.4545 119.676 91.3532 117.783 87.3523C115.889 83.3277 115.38 78.6046 116.256 73.1832L124.033 26.2727H141.611L134.047 71.6562C133.644 74.1657 133.834 76.4029 134.615 78.3679C135.42 80.3092 136.722 81.848 138.521 82.9844C140.32 84.0971 142.522 84.6534 145.126 84.6534C147.754 84.6534 150.157 84.0971 152.335 82.9844C154.513 81.848 156.312 80.3092 157.733 78.3679C159.153 76.4029 160.065 74.1657 160.467 71.6562L168.031 26.2727ZM176.215 119.455L188.786 44.4545H205.973L204.446 53.794H204.979C205.926 52.1368 207.181 50.5388 208.743 49C210.329 47.4612 212.235 46.2064 214.46 45.2358C216.686 44.2415 219.231 43.7443 222.095 43.7443C225.883 43.7443 229.257 44.7386 232.216 46.7273C235.175 48.7159 237.33 51.7817 238.679 55.9247C240.029 60.0677 240.171 65.3471 239.105 71.7628C238.087 77.9418 236.241 83.1146 233.566 87.2812C230.914 91.4479 227.765 94.5729 224.12 96.6562C220.474 98.7396 216.65 99.7812 212.649 99.7812C209.903 99.7812 207.583 99.3314 205.689 98.4318C203.819 97.5322 202.339 96.3485 201.25 94.8807C200.161 93.4129 199.404 91.8385 198.978 90.1577H198.48L193.651 119.455H176.215ZM201.25 71.7273C200.777 74.6629 200.753 77.2197 201.179 79.3977C201.605 81.5758 202.469 83.2685 203.772 84.4759C205.097 85.6596 206.814 86.2514 208.921 86.2514C211.051 86.2514 212.945 85.6596 214.603 84.4759C216.283 83.2685 217.692 81.5758 218.828 79.3977C219.965 77.2197 220.793 74.6629 221.314 71.7273C221.764 68.7917 221.776 66.2467 221.35 64.0923C220.947 61.938 220.107 60.2689 218.828 59.0852C217.55 57.9015 215.834 57.3097 213.679 57.3097C211.572 57.3097 209.655 57.8897 207.926 59.0497C206.222 60.2098 204.801 61.867 203.665 64.0213C202.529 66.1757 201.724 68.7443 201.25 71.7273ZM292.477 61.1094L276.817 61.5355C276.84 60.3755 276.58 59.3575 276.035 58.4815C275.491 57.5819 274.721 56.8835 273.727 56.3864C272.733 55.8892 271.549 55.6406 270.176 55.6406C267.951 55.6406 265.95 56.1378 264.175 57.1321C262.423 58.1264 261.44 59.4167 261.227 61.0028C261.061 61.8551 261.298 62.6009 261.937 63.2401C262.577 63.8556 263.997 64.4001 266.199 64.8736L276.426 66.8622C281.682 67.9039 285.493 69.715 287.861 72.2955C290.252 74.8523 291.104 78.2377 290.417 82.4517C289.802 86.0502 288.216 89.1634 285.659 91.7912C283.126 94.419 279.894 96.455 275.964 97.8991C272.058 99.3196 267.738 100.03 263.003 100.03C255.001 100.03 248.964 98.42 244.892 95.2003C240.844 91.9569 238.95 87.66 239.21 82.3097L256.114 81.8835C256.185 83.8958 256.859 85.411 258.138 86.429C259.44 87.4233 261.203 87.9441 263.429 87.9915C265.867 88.0388 267.974 87.5298 269.75 86.4645C271.525 85.3991 272.52 84.0852 272.733 82.5227C272.875 81.5047 272.532 80.7116 271.703 80.1435C270.898 79.5753 269.395 79.0663 267.193 78.6165L257.96 76.8054C252.657 75.7874 248.822 73.8698 246.454 71.0526C244.111 68.2116 243.306 64.5895 244.04 60.1861C244.655 56.6823 246.099 53.7112 248.372 51.2727C250.668 48.8106 253.663 46.9403 257.356 45.6619C261.073 44.3835 265.311 43.7443 270.069 43.7443C277.693 43.7443 283.445 45.295 287.328 48.3963C291.234 51.474 292.951 55.7116 292.477 61.1094ZM331.076 44.4545L328.91 57.2386H294.5L296.666 44.4545H331.076ZM306.005 31.3864H323.37L314.99 81.848C314.824 82.9134 314.848 83.7775 315.061 84.4403C315.297 85.0795 315.723 85.5412 316.339 85.8253C316.978 86.0857 317.759 86.2159 318.683 86.2159C319.322 86.2159 320.032 86.1449 320.813 86.0028C321.595 85.8608 322.187 85.7543 322.589 85.6832L323.157 98.2188C322.234 98.4792 320.991 98.7751 319.428 99.1065C317.89 99.4616 316.09 99.6866 314.031 99.7812C309.864 99.947 306.42 99.4616 303.697 98.3253C300.998 97.1652 299.092 95.366 297.98 92.9276C296.891 90.4891 296.678 87.4351 297.34 83.7656L306.005 31.3864ZM341.08 99.9233C337.623 99.9233 334.64 99.3433 332.131 98.1832C329.645 96.9995 327.822 95.2121 326.662 92.821C325.526 90.4299 325.254 87.447 325.845 83.8722C326.366 80.8419 327.325 78.2969 328.722 76.2372C330.142 74.1539 331.882 72.4612 333.942 71.1591C336.025 69.857 338.345 68.8627 340.902 68.1761C343.459 67.4896 346.134 67.0279 348.928 66.7912C352.053 66.5071 354.586 66.1993 356.527 65.8679C358.492 65.5365 359.96 65.0748 360.931 64.483C361.901 63.8674 362.493 63.0152 362.706 61.9261V61.7486C362.99 59.9257 362.6 58.517 361.534 57.5227C360.469 56.5284 358.871 56.0312 356.74 56.0312C354.468 56.0312 352.526 56.5284 350.916 57.5227C349.307 58.517 348.182 59.8902 347.543 61.642L331.634 61.0739C332.628 57.7595 334.333 54.8002 336.747 52.196C339.162 49.5682 342.228 47.5085 345.945 46.017C349.685 44.5019 354.006 43.7443 358.906 43.7443C362.363 43.7443 365.488 44.1586 368.281 44.9872C371.075 45.7921 373.431 46.9759 375.348 48.5384C377.29 50.0772 378.674 51.9711 379.503 54.2202C380.332 56.4692 380.509 59.0379 380.036 61.9261L373.821 99H357.486L358.764 91.4006H358.338C357.06 93.2472 355.557 94.8097 353.828 96.0881C352.124 97.3665 350.206 98.3253 348.076 98.9645C345.945 99.6037 343.613 99.9233 341.08 99.9233ZM348.395 88.5597C350.218 88.5597 351.946 88.1809 353.58 87.4233C355.213 86.6657 356.586 85.6241 357.699 84.2983C358.835 82.9489 359.558 81.3864 359.865 79.6108L360.682 74.4261C360.185 74.6866 359.558 74.9233 358.8 75.1364C358.042 75.3494 357.237 75.5507 356.385 75.7401C355.533 75.9058 354.657 76.0715 353.757 76.2372C352.881 76.3793 352.041 76.5095 351.236 76.6278C349.531 76.8883 348.052 77.2907 346.797 77.8352C345.542 78.3797 344.536 79.09 343.779 79.9659C343.045 80.8182 342.595 81.8362 342.429 83.0199C342.145 84.7955 342.559 86.1686 343.672 87.1392C344.785 88.0862 346.359 88.5597 348.395 88.5597ZM379.439 99L388.53 44.4545H405.398L403.729 54.3977H404.297C405.883 50.7992 407.955 48.1241 410.512 46.3722C413.068 44.5966 415.838 43.7088 418.821 43.7088C419.626 43.7088 420.431 43.768 421.236 43.8864C422.065 43.9811 422.846 44.1231 423.58 44.3125L421.023 59.4403C420.218 59.1326 419.165 58.9077 417.862 58.7656C416.56 58.5999 415.377 58.517 414.311 58.517C412.252 58.517 410.334 58.9787 408.558 59.902C406.807 60.8016 405.315 62.0682 404.084 63.7017C402.877 65.3116 402.084 67.2055 401.705 69.3835L396.804 99H379.439ZM458.947 44.4545L456.781 57.2386H422.371L424.537 44.4545H458.947ZM433.876 31.3864H451.241L442.861 81.848C442.695 82.9134 442.719 83.7775 442.932 84.4403C443.168 85.0795 443.595 85.5412 444.21 85.8253C444.849 86.0857 445.631 86.2159 446.554 86.2159C447.193 86.2159 447.903 86.1449 448.685 86.0028C449.466 85.8608 450.058 85.7543 450.46 85.6832L451.028 98.2188C450.105 98.4792 448.862 98.7751 447.3 99.1065C445.761 99.4616 443.962 99.6866 441.902 99.7812C437.735 99.947 434.291 99.4616 431.568 98.3253C428.869 97.1652 426.963 95.366 425.851 92.9276C424.762 90.4891 424.549 87.4351 425.212 83.7656L433.876 31.3864Z" fill="#404040"/>
<path d="M22.0266 88.0611L22.3174 91.1156L62.9661 100.686L64.5891 98.0821C65.632 96.4246 66.5912 94.7159 67.4631 92.9624L86.2273 97.3803L89.6949 82.6519L75.6877 67.5417C77.4598 58.3629 77.3938 48.9239 75.4937 39.7707C73.5935 30.6176 69.897 21.9322 64.6179 14.2172L62.5282 11.5296L59.4588 13.0026C51.2922 17.5519 44.109 23.6758 38.3248 31.0197C32.5406 38.3636 28.2703 46.7817 25.7611 55.7869L6.4838 63.0605L3.01613 77.7889L21.7802 82.2068C21.7648 84.1611 21.847 86.115 22.0266 88.0611ZM79.8653 87.1L70.7953 84.9646C71.6546 82.62 72.4186 80.1212 73.1606 77.5295L80.1495 85.147L79.8653 87.1ZM59.9225 22.5967C68.0833 37.2413 70.3164 54.4581 66.1617 70.7001C64.634 77.737 62.19 84.5431 58.8924 90.9445L30.351 84.2247C30.2557 77.0245 31.1051 69.8429 32.8773 62.8635C36.3517 46.4513 46.0439 32.0209 59.9225 22.5967ZM13.2964 71.4269L13.747 69.5131L23.4003 65.8139C22.7832 68.435 22.4769 71.0415 22.2 73.5232L13.2964 71.4269Z" fill="#817FCC" stroke="#817FCC" stroke-width="2"/>
<path d="M53.3537 52.2512L53.8909 61.681L63.0251 64.084L54.2228 67.5089L54.76 76.9386L48.7828 69.6255L39.9805 73.0504L45.0886 65.1058L39.1114 57.7927L48.2456 60.1958L53.3537 52.2512Z" fill="url(#paint1_linear_2003_3)"/>
<defs>
<linearGradient id="paint0_linear_2003_3" x1="111" y1="62.5" x2="458" y2="62.5" gradientUnits="userSpaceOnUse">
<stop stop-color="#7763C0"/>
<stop offset="1" stop-color="#8775C7"/>
</linearGradient>
<linearGradient id="paint1_linear_2003_3" x1="53.3537" y1="52.2512" x2="42.3383" y2="76.2379" gradientUnits="userSpaceOnUse">
<stop stop-color="#FFAD33"/>
<stop offset="1" stop-color="#FF9900"/>
</linearGradient>
</defs>
</svg>
