<svg width="478" height="121" viewBox="0 0 478 121" fill="none" xmlns="http://www.w3.org/2000/svg">
<path d="M193.773 24.2727H209.149L201.337 71.5028C200.461 76.8059 198.437 81.446 195.264 85.4233C192.092 89.4006 188.055 92.5019 183.155 94.7273C178.254 96.929 172.786 98.0298 166.749 98.0298C160.712 98.0298 155.622 96.929 151.479 94.7273C147.336 92.5019 144.341 89.4006 142.494 85.4233C140.648 81.446 140.162 76.8059 141.038 71.5028L148.851 24.2727H164.227L156.592 70.1889C156.166 72.9588 156.379 75.4209 157.232 77.5753C158.108 79.7296 159.552 81.4223 161.564 82.6534C163.576 83.8845 166.062 84.5 169.021 84.5C172.004 84.5 174.703 83.8845 177.118 82.6534C179.556 81.4223 181.557 79.7296 183.119 77.5753C184.706 75.4209 185.712 72.9588 186.138 70.1889L193.773 24.2727ZM201.14 117.455L213.711 42.4545H228.625L227.098 51.6165H227.773C228.673 50.1487 229.868 48.6572 231.36 47.142C232.875 45.6032 234.757 44.3248 237.006 43.3068C239.255 42.2652 241.895 41.7443 244.925 41.7443C248.926 41.7443 252.418 42.786 255.401 44.8693C258.384 46.929 260.538 50.0421 261.864 54.2088C263.213 58.3518 263.367 63.5483 262.326 69.7983C261.331 75.8826 259.497 81.0199 256.821 85.2102C254.17 89.3769 250.986 92.5374 247.269 94.6918C243.576 96.8224 239.658 97.8878 235.515 97.8878C232.579 97.8878 230.164 97.4025 228.27 96.4318C226.4 95.4612 224.944 94.242 223.902 92.7741C222.861 91.2827 222.127 89.7794 221.701 88.2642H221.133L216.303 117.455H201.14ZM223.973 69.7273C223.453 72.9706 223.429 75.7997 223.902 78.2145C224.4 80.6293 225.394 82.5114 226.885 83.8608C228.377 85.1866 230.342 85.8494 232.78 85.8494C235.242 85.8494 237.432 85.1747 239.35 83.8253C241.267 82.4522 242.865 80.5582 244.144 78.1435C245.422 75.705 246.334 72.8996 246.878 69.7273C247.375 66.5786 247.387 63.8087 246.914 61.4176C246.44 59.0265 245.47 57.1562 244.002 55.8068C242.534 54.4574 240.545 53.7827 238.036 53.7827C235.597 53.7827 233.408 54.4337 231.466 55.7358C229.549 57.0379 227.951 58.8845 226.672 61.2756C225.394 63.6667 224.494 66.4839 223.973 69.7273ZM314.632 58.0085L300.889 58.8608C300.818 57.6534 300.487 56.5762 299.895 55.6293C299.327 54.6586 298.486 53.8892 297.374 53.321C296.285 52.7528 294.912 52.4688 293.254 52.4688C290.769 52.4688 288.555 53.0369 286.614 54.1733C284.672 55.3097 283.572 56.7656 283.311 58.5412C283.098 59.6776 283.394 60.6364 284.199 61.4176C285.004 62.1989 286.626 62.8617 289.064 63.4062L298.652 65.3949C303.766 66.4839 307.459 68.295 309.732 70.8281C312.028 73.3613 312.845 76.6757 312.182 80.7713C311.59 84.2514 310.063 87.2936 307.601 89.8977C305.139 92.4782 302.014 94.4905 298.226 95.9347C294.438 97.3551 290.236 98.0653 285.619 98.0653C278.209 98.0653 272.575 96.5502 268.716 93.5199C264.857 90.4896 262.999 86.3821 263.141 81.1974L277.913 80.4162C278.032 82.6416 278.813 84.3224 280.257 85.4588C281.701 86.5715 283.678 87.1397 286.188 87.1634C289.005 87.2107 291.396 86.6307 293.361 85.4233C295.349 84.1922 296.474 82.7008 296.734 80.9489C296.924 79.7178 296.569 78.7235 295.669 77.9659C294.793 77.2083 293.183 76.581 290.84 76.0838L281.749 74.2017C276.588 73.1364 272.883 71.2306 270.634 68.4844C268.385 65.7382 267.615 62.2462 268.325 58.0085C268.894 54.6231 270.302 51.723 272.551 49.3082C274.824 46.8698 277.748 44.9995 281.322 43.6974C284.921 42.3954 288.981 41.7443 293.503 41.7443C300.581 41.7443 305.908 43.2003 309.483 46.1122C313.081 49.0241 314.798 52.9896 314.632 58.0085ZM352.077 42.4545L350.195 53.8182H317.311L319.229 42.4545H352.077ZM328.817 29.3864H343.945L335.493 80.2386C335.257 81.6354 335.292 82.7244 335.6 83.5057C335.908 84.2633 336.417 84.7959 337.127 85.1037C337.861 85.4115 338.737 85.5653 339.755 85.5653C340.465 85.5653 341.187 85.5062 341.921 85.3878C342.655 85.2457 343.211 85.1392 343.59 85.0682L344.158 96.3253C343.306 96.5857 342.158 96.8698 340.713 97.1776C339.293 97.4853 337.612 97.6747 335.671 97.7457C331.978 97.8878 328.853 97.4025 326.296 96.2898C323.739 95.1534 321.904 93.4134 320.792 91.0696C319.679 88.7259 319.442 85.7784 320.081 82.2273L328.817 29.3864ZM363.253 98.0298C359.796 98.0298 356.801 97.4261 354.268 96.2188C351.759 94.9877 349.912 93.1648 348.728 90.75C347.545 88.3352 347.249 85.3404 347.841 81.7656C348.361 78.7353 349.344 76.2022 350.788 74.1662C352.256 72.1065 354.043 70.4493 356.15 69.1946C358.257 67.9399 360.589 66.9811 363.146 66.3182C365.726 65.6553 368.39 65.2055 371.136 64.9688C374.308 64.6373 376.889 64.3177 378.878 64.0099C380.89 63.7022 382.393 63.2642 383.387 62.696C384.382 62.1042 384.985 61.2282 385.199 60.0682V59.8551C385.554 57.6297 385.139 55.9015 383.956 54.6705C382.796 53.4157 380.937 52.7884 378.38 52.7884C375.682 52.7884 373.385 53.3802 371.491 54.5639C369.621 55.7476 368.283 57.2509 367.478 59.0739L353.7 57.9375C354.931 54.6231 356.789 51.7585 359.275 49.3438C361.785 46.9053 364.803 45.035 368.331 43.733C371.858 42.4072 375.812 41.7443 380.191 41.7443C383.222 41.7443 386.051 42.0994 388.679 42.8097C391.33 43.5199 393.615 44.6207 395.532 46.1122C397.474 47.6037 398.87 49.5213 399.723 51.8651C400.599 54.1851 400.776 56.9669 400.255 60.2102L394.112 97H379.765L381.044 89.4361H380.618C379.458 91.1406 378.037 92.6439 376.356 93.946C374.675 95.2244 372.746 96.2306 370.568 96.9645C368.39 97.6747 365.951 98.0298 363.253 98.0298ZM369.325 87.5895C371.527 87.5895 373.551 87.1515 375.397 86.2756C377.268 85.3759 378.807 84.1686 380.014 82.6534C381.245 81.1383 382.026 79.4219 382.358 77.5043L383.281 71.7159C382.807 72.0237 382.121 72.2959 381.221 72.5327C380.345 72.7694 379.387 72.9943 378.345 73.2074C377.327 73.3968 376.297 73.5743 375.255 73.7401C374.214 73.8821 373.279 74.0241 372.45 74.1662C370.627 74.4266 368.994 74.8409 367.549 75.4091C366.105 75.9773 364.933 76.7467 364.034 77.7173C363.134 78.6643 362.578 79.848 362.365 81.2685C362.033 83.3281 362.519 84.9025 363.821 85.9915C365.146 87.0568 366.981 87.5895 369.325 87.5895ZM400.848 97L409.939 42.4545H424.606L423.008 51.9716H423.576C425.138 48.5862 427.233 46.0294 429.861 44.3011C432.513 42.5492 435.365 41.6733 438.419 41.6733C439.177 41.6733 439.97 41.7206 440.799 41.8153C441.651 41.8864 442.409 42.0047 443.071 42.1705L440.799 55.6293C440.136 55.3925 439.189 55.2031 437.958 55.0611C436.75 54.8954 435.602 54.8125 434.513 54.8125C432.311 54.8125 430.264 55.2978 428.37 56.2685C426.476 57.2154 424.878 58.5412 423.576 60.2457C422.297 61.9503 421.457 63.9152 421.054 66.1406L415.976 97H400.848ZM477.604 42.4545L475.722 53.8182H442.839L444.756 42.4545H477.604ZM454.345 29.3864H469.472L461.021 80.2386C460.784 81.6354 460.819 82.7244 461.127 83.5057C461.435 84.2633 461.944 84.7959 462.654 85.1037C463.388 85.4115 464.264 85.5653 465.282 85.5653C465.992 85.5653 466.714 85.5062 467.448 85.3878C468.182 85.2457 468.738 85.1392 469.117 85.0682L469.685 96.3253C468.833 96.5857 467.685 96.8698 466.241 97.1776C464.82 97.4853 463.139 97.6747 461.198 97.7457C457.505 97.8878 454.38 97.4025 451.823 96.2898C449.266 95.1534 447.432 93.4134 446.319 91.0696C445.206 88.7259 444.97 85.7784 445.609 82.2273L454.345 29.3864Z" fill="url(#paint0_linear_2145_310)"/>
<path d="M193.773 24.2727H209.149L201.337 71.5028C200.461 76.8059 198.437 81.446 195.264 85.4233C192.092 89.4006 188.055 92.5019 183.155 94.7273C178.254 96.929 172.786 98.0298 166.749 98.0298C160.712 98.0298 155.622 96.929 151.479 94.7273C147.336 92.5019 144.341 89.4006 142.494 85.4233C140.648 81.446 140.162 76.8059 141.038 71.5028L148.851 24.2727H164.227L156.592 70.1889C156.166 72.9588 156.379 75.4209 157.232 77.5753C158.108 79.7296 159.552 81.4223 161.564 82.6534C163.576 83.8845 166.062 84.5 169.021 84.5C172.004 84.5 174.703 83.8845 177.118 82.6534C179.556 81.4223 181.557 79.7296 183.119 77.5753C184.706 75.4209 185.712 72.9588 186.138 70.1889L193.773 24.2727ZM201.14 117.455L213.711 42.4545H228.625L227.098 51.6165H227.773C228.673 50.1487 229.868 48.6572 231.36 47.142C232.875 45.6032 234.757 44.3248 237.006 43.3068C239.255 42.2652 241.895 41.7443 244.925 41.7443C248.926 41.7443 252.418 42.786 255.401 44.8693C258.384 46.929 260.538 50.0421 261.864 54.2088C263.213 58.3518 263.367 63.5483 262.326 69.7983C261.331 75.8826 259.497 81.0199 256.821 85.2102C254.17 89.3769 250.986 92.5374 247.269 94.6918C243.576 96.8224 239.658 97.8878 235.515 97.8878C232.579 97.8878 230.164 97.4025 228.27 96.4318C226.4 95.4612 224.944 94.242 223.902 92.7741C222.861 91.2827 222.127 89.7794 221.701 88.2642H221.133L216.303 117.455H201.14ZM223.973 69.7273C223.453 72.9706 223.429 75.7997 223.902 78.2145C224.4 80.6293 225.394 82.5114 226.885 83.8608C228.377 85.1866 230.342 85.8494 232.78 85.8494C235.242 85.8494 237.432 85.1747 239.35 83.8253C241.267 82.4522 242.865 80.5582 244.144 78.1435C245.422 75.705 246.334 72.8996 246.878 69.7273C247.375 66.5786 247.387 63.8087 246.914 61.4176C246.44 59.0265 245.47 57.1562 244.002 55.8068C242.534 54.4574 240.545 53.7827 238.036 53.7827C235.597 53.7827 233.408 54.4337 231.466 55.7358C229.549 57.0379 227.951 58.8845 226.672 61.2756C225.394 63.6667 224.494 66.4839 223.973 69.7273ZM314.632 58.0085L300.889 58.8608C300.818 57.6534 300.487 56.5762 299.895 55.6293C299.327 54.6586 298.486 53.8892 297.374 53.321C296.285 52.7528 294.912 52.4688 293.254 52.4688C290.769 52.4688 288.555 53.0369 286.614 54.1733C284.672 55.3097 283.572 56.7656 283.311 58.5412C283.098 59.6776 283.394 60.6364 284.199 61.4176C285.004 62.1989 286.626 62.8617 289.064 63.4062L298.652 65.3949C303.766 66.4839 307.459 68.295 309.732 70.8281C312.028 73.3613 312.845 76.6757 312.182 80.7713C311.59 84.2514 310.063 87.2936 307.601 89.8977C305.139 92.4782 302.014 94.4905 298.226 95.9347C294.438 97.3551 290.236 98.0653 285.619 98.0653C278.209 98.0653 272.575 96.5502 268.716 93.5199C264.857 90.4896 262.999 86.3821 263.141 81.1974L277.913 80.4162C278.032 82.6416 278.813 84.3224 280.257 85.4588C281.701 86.5715 283.678 87.1397 286.188 87.1634C289.005 87.2107 291.396 86.6307 293.361 85.4233C295.349 84.1922 296.474 82.7008 296.734 80.9489C296.924 79.7178 296.569 78.7235 295.669 77.9659C294.793 77.2083 293.183 76.581 290.84 76.0838L281.749 74.2017C276.588 73.1364 272.883 71.2306 270.634 68.4844C268.385 65.7382 267.615 62.2462 268.325 58.0085C268.894 54.6231 270.302 51.723 272.551 49.3082C274.824 46.8698 277.748 44.9995 281.322 43.6974C284.921 42.3954 288.981 41.7443 293.503 41.7443C300.581 41.7443 305.908 43.2003 309.483 46.1122C313.081 49.0241 314.798 52.9896 314.632 58.0085ZM352.077 42.4545L350.195 53.8182H317.311L319.229 42.4545H352.077ZM328.817 29.3864H343.945L335.493 80.2386C335.257 81.6354 335.292 82.7244 335.6 83.5057C335.908 84.2633 336.417 84.7959 337.127 85.1037C337.861 85.4115 338.737 85.5653 339.755 85.5653C340.465 85.5653 341.187 85.5062 341.921 85.3878C342.655 85.2457 343.211 85.1392 343.59 85.0682L344.158 96.3253C343.306 96.5857 342.158 96.8698 340.713 97.1776C339.293 97.4853 337.612 97.6747 335.671 97.7457C331.978 97.8878 328.853 97.4025 326.296 96.2898C323.739 95.1534 321.904 93.4134 320.792 91.0696C319.679 88.7259 319.442 85.7784 320.081 82.2273L328.817 29.3864ZM363.253 98.0298C359.796 98.0298 356.801 97.4261 354.268 96.2188C351.759 94.9877 349.912 93.1648 348.728 90.75C347.545 88.3352 347.249 85.3404 347.841 81.7656C348.361 78.7353 349.344 76.2022 350.788 74.1662C352.256 72.1065 354.043 70.4493 356.15 69.1946C358.257 67.9399 360.589 66.9811 363.146 66.3182C365.726 65.6553 368.39 65.2055 371.136 64.9688C374.308 64.6373 376.889 64.3177 378.878 64.0099C380.89 63.7022 382.393 63.2642 383.387 62.696C384.382 62.1042 384.985 61.2282 385.199 60.0682V59.8551C385.554 57.6297 385.139 55.9015 383.956 54.6705C382.796 53.4157 380.937 52.7884 378.38 52.7884C375.682 52.7884 373.385 53.3802 371.491 54.5639C369.621 55.7476 368.283 57.2509 367.478 59.0739L353.7 57.9375C354.931 54.6231 356.789 51.7585 359.275 49.3438C361.785 46.9053 364.803 45.035 368.331 43.733C371.858 42.4072 375.812 41.7443 380.191 41.7443C383.222 41.7443 386.051 42.0994 388.679 42.8097C391.33 43.5199 393.615 44.6207 395.532 46.1122C397.474 47.6037 398.87 49.5213 399.723 51.8651C400.599 54.1851 400.776 56.9669 400.255 60.2102L394.112 97H379.765L381.044 89.4361H380.618C379.458 91.1406 378.037 92.6439 376.356 93.946C374.675 95.2244 372.746 96.2306 370.568 96.9645C368.39 97.6747 365.951 98.0298 363.253 98.0298ZM369.325 87.5895C371.527 87.5895 373.551 87.1515 375.397 86.2756C377.268 85.3759 378.807 84.1686 380.014 82.6534C381.245 81.1383 382.026 79.4219 382.358 77.5043L383.281 71.7159C382.807 72.0237 382.121 72.2959 381.221 72.5327C380.345 72.7694 379.387 72.9943 378.345 73.2074C377.327 73.3968 376.297 73.5743 375.255 73.7401C374.214 73.8821 373.279 74.0241 372.45 74.1662C370.627 74.4266 368.994 74.8409 367.549 75.4091C366.105 75.9773 364.933 76.7467 364.034 77.7173C363.134 78.6643 362.578 79.848 362.365 81.2685C362.033 83.3281 362.519 84.9025 363.821 85.9915C365.146 87.0568 366.981 87.5895 369.325 87.5895ZM400.848 97L409.939 42.4545H424.606L423.008 51.9716H423.576C425.138 48.5862 427.233 46.0294 429.861 44.3011C432.513 42.5492 435.365 41.6733 438.419 41.6733C439.177 41.6733 439.97 41.7206 440.799 41.8153C441.651 41.8864 442.409 42.0047 443.071 42.1705L440.799 55.6293C440.136 55.3925 439.189 55.2031 437.958 55.0611C436.75 54.8954 435.602 54.8125 434.513 54.8125C432.311 54.8125 430.264 55.2978 428.37 56.2685C426.476 57.2154 424.878 58.5412 423.576 60.2457C422.297 61.9503 421.457 63.9152 421.054 66.1406L415.976 97H400.848ZM477.604 42.4545L475.722 53.8182H442.839L444.756 42.4545H477.604ZM454.345 29.3864H469.472L461.021 80.2386C460.784 81.6354 460.819 82.7244 461.127 83.5057C461.435 84.2633 461.944 84.7959 462.654 85.1037C463.388 85.4115 464.264 85.5653 465.282 85.5653C465.992 85.5653 466.714 85.5062 467.448 85.3878C468.182 85.2457 468.738 85.1392 469.117 85.0682L469.685 96.3253C468.833 96.5857 467.685 96.8698 466.241 97.1776C464.82 97.4853 463.139 97.6747 461.198 97.7457C457.505 97.8878 454.38 97.4025 451.823 96.2898C449.266 95.1534 447.432 93.4134 446.319 91.0696C445.206 88.7259 444.97 85.7784 445.609 82.2273L454.345 29.3864Z" fill="#F5F5F5"/>
<g clip-path="url(#clip0_2145_310)">
<path d="M97.1094 7H12.8906C5.77133 7 0 12.7713 0 19.8906V104.109C0 111.229 5.77133 117 12.8906 117H97.1094C104.229 117 110 111.229 110 104.109V19.8906C110 12.7713 104.229 7 97.1094 7Z" fill="#F5F5F5"/>
<path d="M74.4445 31.0625H88.0859L81.1549 73.0227C80.3778 77.734 78.5821 81.8564 75.7677 85.3899C72.9532 88.9234 69.3722 91.6787 65.0246 93.6558C60.677 95.6118 55.8253 96.5898 50.4695 96.5898C45.1137 96.5898 40.5981 95.6118 36.9225 93.6558C33.247 91.6787 30.5901 88.9234 28.9519 85.3899C27.3136 81.8564 26.8831 77.734 27.6602 73.0227L34.5912 31.0625H48.2327L41.4592 71.8554C41.0811 74.3162 41.2702 76.5036 42.0263 78.4176C42.8034 80.3316 44.0846 81.8354 45.8698 82.9291C47.6551 84.0228 49.8604 84.5697 52.4858 84.5697C55.1322 84.5697 57.5265 84.0228 59.6688 82.9291C61.8321 81.8354 63.6069 80.3316 64.9931 78.4176C66.4003 76.5036 67.2929 74.3162 67.671 71.8554L74.4445 31.0625Z" fill="#817FCC"/>
<path d="M21.6992 32.5664C21.6992 31.7358 22.3725 31.0625 23.2031 31.0625H35.2344C36.065 31.0625 36.7383 31.7358 36.7383 32.5664V41.375C36.7383 42.2056 36.065 42.8789 35.2344 42.8789H23.2031C22.3725 42.8789 21.6992 42.2056 21.6992 41.375V32.5664Z" fill="#817FCC"/>
</g>
<defs>
<linearGradient id="paint0_linear_2145_310" x1="135.001" y1="60.5" x2="478.001" y2="60.5" gradientUnits="userSpaceOnUse">
<stop stop-color="#7763C0"/>
<stop offset="1" stop-color="#8775C7"/>
</linearGradient>
<clipPath id="clip0_2145_310">
<rect width="110" height="110" fill="white" transform="translate(0 7)"/>
</clipPath>
</defs>
</svg>
