<svg width="512" height="512" viewBox="0 0 512 512" fill="none" xmlns="http://www.w3.org/2000/svg">
<g clip-path="url(#clip0_934_9)">
<path d="M452 0H60C26.8629 0 0 26.8629 0 60V452C0 485.137 26.8629 512 60 512H452C485.137 512 512 485.137 512 452V60C512 26.8629 485.137 0 452 0Z" fill="#817FCC"/>
<path d="M442 50H70C58.9543 50 50 58.9543 50 70V130C50 141.046 58.9543 150 70 150H442C453.046 150 462 141.046 462 130V70C462 58.9543 453.046 50 442 50Z" fill="white"/>
<path d="M218.3 196H68.7C58.3723 196 50 204.157 50 214.219V443.781C50 453.843 58.3723 462 68.7 462H218.3C228.628 462 237 453.843 237 443.781V214.219C237 204.157 228.628 196 218.3 196Z" fill="white"/>
<path d="M443.458 196H302.542C292.301 196 284 203.291 284 212.286V293.714C284 302.709 292.301 310 302.542 310H443.458C453.699 310 462 302.709 462 293.714V212.286C462 203.291 453.699 196 443.458 196Z" fill="white"/>
<path d="M295.702 351.192C291.143 352.849 287.472 356.113 285.525 360.22L289.139 361.934C288.403 363.485 288 365.184 288 366.97V376.727H284V396.242H288V415.758H284V435.273H288V445.03C288 446.816 288.403 448.515 289.139 450.066L285.525 451.78C287.472 455.887 291.143 459.151 295.702 460.808L297.068 457.049C298.749 457.659 300.594 458 302.542 458H311.349V462H328.964V458H346.578V462H364.193V458H381.807V462H399.422V458H417.036V462H434.651V458H443.458C445.406 458 447.251 457.659 448.932 457.049L450.298 460.808C454.857 459.151 458.528 455.887 460.475 451.78L456.861 450.066C457.597 448.515 458 446.816 458 445.03V435.273H462V415.758H458V396.242H462V376.727H458V366.97C458 365.184 457.597 363.485 456.861 361.934L460.475 360.22C458.528 356.113 454.857 352.849 450.298 351.192L448.932 354.951C447.251 354.341 445.406 354 443.458 354H434.651V350H417.036V354H399.422V350H381.807V354H364.193V350H346.578V354H328.964V350H311.349V354H302.542C300.594 354 298.749 354.341 297.068 354.951L295.702 351.192Z" stroke="white" stroke-width="8" stroke-dasharray="16 16"/>
</g>
<defs>
<clipPath id="clip0_934_9">
<rect width="512" height="512" fill="white"/>
</clipPath>
</defs>
</svg>
