<svg width="1144" height="452" viewBox="0 0 1144 452" fill="none" xmlns="http://www.w3.org/2000/svg">
<path d="M376.312 297V159.64H470.04V185.698H408.228V214.584H457.92V240.44H408.228V270.74H470.04V297H376.312ZM482.116 297V195.394H512.82V201.656C514.974 200.309 517.533 199.03 520.496 197.818C523.458 196.471 526.556 195.394 529.788 194.586C533.154 193.643 536.319 193.172 539.282 193.172C548.843 193.172 556.25 194.855 561.502 198.222C566.888 201.454 570.659 206.908 572.814 214.584C575.103 222.125 576.248 232.158 576.248 244.682V297H545.342V246.5C545.342 240.171 544.938 235.053 544.13 231.148C543.322 227.243 541.908 224.415 539.888 222.664C537.868 220.913 534.972 220.038 531.202 220.038C529.047 220.038 526.825 220.24 524.536 220.644C522.246 221.048 520.092 221.587 518.072 222.26C516.052 222.933 514.368 223.607 513.022 224.28V297H482.116ZM590.912 339.016V195.394H621.414L621.616 201.656C623.501 200.444 625.79 199.165 628.484 197.818C631.312 196.471 634.342 195.394 637.574 194.586C640.806 193.643 643.97 193.172 647.068 193.172C660.804 193.172 670.634 197.616 676.56 206.504C682.485 215.392 685.448 228.589 685.448 246.096C685.448 258.485 683.966 268.653 681.004 276.598C678.176 284.409 673.53 290.199 667.066 293.97C660.602 297.606 651.983 299.424 641.21 299.424C637.978 299.424 634.476 299.087 630.706 298.414C627.07 297.875 624.107 297.404 621.818 297V339.016H590.912ZM635.554 273.972C640.402 273.972 644.172 272.895 646.866 270.74C649.559 268.451 651.444 265.219 652.522 261.044C653.734 256.735 654.34 251.483 654.34 245.288C654.34 235.188 652.993 228.253 650.3 224.482C647.606 220.711 643.634 218.826 638.382 218.826C636.631 218.826 634.678 219.095 632.524 219.634C630.504 220.038 628.551 220.577 626.666 221.25C624.78 221.923 623.164 222.597 621.818 223.27V272.558C623.164 272.827 625.117 273.164 627.676 273.568C630.369 273.837 632.995 273.972 635.554 273.972ZM726.01 299.424C714.968 299.424 706.686 296.731 701.164 291.344C695.778 285.957 693.084 277.743 693.084 266.7C693.084 258.889 694.498 252.897 697.326 248.722C700.289 244.413 704.531 241.315 710.052 239.43C715.574 237.545 722.24 236.4 730.05 235.996L752.674 234.178V228.926C752.674 224.886 751.53 222.058 749.24 220.442C747.086 218.691 743.854 217.816 739.544 217.816C735.639 217.816 731.195 217.951 726.212 218.22C721.23 218.489 716.314 218.826 711.466 219.23C706.618 219.634 702.444 220.038 698.942 220.442L697.932 199.03C701.568 198.087 705.878 197.212 710.86 196.404C715.978 195.461 721.297 194.721 726.818 194.182C732.34 193.509 737.524 193.172 742.372 193.172C751.126 193.172 758.532 194.249 764.592 196.404C770.787 198.424 775.5 201.925 778.732 206.908C781.964 211.756 783.58 218.557 783.58 227.31V271.75C783.984 273.366 784.927 274.645 786.408 275.588C788.024 276.396 789.775 277.002 791.66 277.406L791.054 298.01C787.957 298.279 784.658 298.481 781.156 298.616C777.79 298.751 775.096 298.683 773.076 298.414C769.575 298.01 766.545 297.202 763.986 295.99C761.562 294.643 759.744 293.297 758.532 291.95C756.378 292.893 753.55 293.97 750.048 295.182C746.547 296.394 742.709 297.404 738.534 298.212C734.494 299.02 730.32 299.424 726.01 299.424ZM733.686 277.002C735.976 277.002 738.265 276.733 740.554 276.194C742.978 275.655 745.268 275.049 747.422 274.376C749.577 273.703 751.328 273.097 752.674 272.558V252.56L734.898 254.176C731.128 254.58 728.367 255.792 726.616 257.812C724.866 259.697 723.99 262.391 723.99 265.892C723.99 269.259 724.798 271.952 726.414 273.972C728.03 275.992 730.454 277.002 733.686 277.002ZM847.468 342.854C836.694 342.854 827.537 342.046 819.996 340.43C812.454 338.949 806.731 336.121 802.826 331.946C799.055 327.771 797.17 321.711 797.17 313.766C797.17 310.265 797.641 307.167 798.584 304.474C799.526 301.781 801.075 299.222 803.23 296.798C805.384 294.239 808.145 291.681 811.512 289.122C809.626 287.641 808.078 285.621 806.866 283.062C805.654 280.369 805.048 277.473 805.048 274.376C805.048 272.76 806.058 270.403 808.078 267.306C810.232 264.209 812.387 261.515 814.542 259.226C811.848 257.879 809.29 256.061 806.866 253.772C804.442 251.348 802.422 248.116 800.806 244.076C799.19 240.036 798.382 234.919 798.382 228.724C798.382 215.661 802.085 206.504 809.492 201.252C816.898 195.865 827.874 193.172 842.418 193.172C845.784 193.172 849.488 193.441 853.528 193.98C857.702 194.384 861.002 194.923 863.426 195.596L897.16 194.788V214.988L883.02 214.786C884.232 216.267 885.242 218.153 886.05 220.442C886.858 222.731 887.262 225.492 887.262 228.724C887.262 238.151 885.646 245.423 882.414 250.54C879.182 255.657 874.334 259.226 867.87 261.246C861.406 263.131 853.124 264.074 843.024 264.074C841.946 264.074 840.532 264.007 838.782 263.872C837.031 263.603 835.55 263.401 834.338 263.266C833.934 264.343 833.462 265.623 832.924 267.104C832.385 268.451 832.116 269.461 832.116 270.134C832.116 271.615 832.722 272.76 833.934 273.568C835.146 274.376 837.57 274.915 841.206 275.184C844.842 275.453 850.296 275.588 857.568 275.588C867.129 275.588 874.738 276.531 880.394 278.416C886.05 280.167 890.09 283.331 892.514 287.91C894.938 292.354 896.15 298.616 896.15 306.696C896.15 318.816 891.84 327.839 883.222 333.764C874.603 339.824 862.685 342.854 847.468 342.854ZM845.65 320.432C853.46 320.432 859.049 319.624 862.416 318.008C865.782 316.392 867.466 313.699 867.466 309.928C867.466 307.1 866.86 304.945 865.648 303.464C864.436 302.117 862.416 301.242 859.588 300.838C856.894 300.434 853.191 300.232 848.478 300.232C847.131 300.232 845.515 300.165 843.63 300.03C841.744 300.03 839.926 299.963 838.176 299.828C836.425 299.828 834.809 299.761 833.328 299.626C831.846 299.626 830.769 299.559 830.096 299.424C827.537 301.175 825.786 302.791 824.844 304.272C824.036 305.753 823.632 307.706 823.632 310.13C823.632 312.689 824.305 314.709 825.652 316.19C827.133 317.671 829.49 318.749 832.722 319.422C835.954 320.095 840.263 320.432 845.65 320.432ZM842.62 242.864C848.006 242.864 851.844 241.787 854.134 239.632C856.558 237.343 857.77 233.639 857.77 228.522C857.77 223.405 856.558 219.769 854.134 217.614C851.844 215.325 848.006 214.18 842.62 214.18C837.368 214.18 833.597 215.325 831.308 217.614C829.018 219.769 827.874 223.405 827.874 228.522C827.874 233.639 829.018 237.343 831.308 239.632C833.597 241.787 837.368 242.864 842.62 242.864ZM948.682 299.424C937.235 299.424 928.078 297.539 921.21 293.768C914.477 289.997 909.629 284.274 906.666 276.598C903.838 268.922 902.424 259.226 902.424 247.51C902.424 235.255 904.175 225.155 907.676 217.21C911.312 209.13 916.631 203.137 923.634 199.232C930.637 195.192 939.457 193.172 950.096 193.172C965.717 193.172 977.433 196.943 985.244 204.484C993.189 212.025 997.162 223.943 997.162 240.238L995.546 256.196H933.33C933.465 262.66 934.811 267.508 937.37 270.74C940.063 273.837 944.642 275.386 951.106 275.386C955.281 275.386 959.927 275.319 965.044 275.184C970.296 274.915 975.481 274.645 980.598 274.376C985.715 274.107 990.092 273.837 993.728 273.568L994.334 294.576C990.833 295.249 986.456 295.99 981.204 296.798C975.952 297.471 970.498 298.077 964.842 298.616C959.186 299.155 953.799 299.424 948.682 299.424ZM933.128 237.41H966.256C966.256 229.33 964.977 223.741 962.418 220.644C959.859 217.412 955.752 215.796 950.096 215.796C944.44 215.796 940.198 217.479 937.37 220.846C934.677 224.078 933.263 229.599 933.128 237.41Z" fill="#333333"/>
<g clip-path="url(#clip0_226_388)">
<path d="M264.219 116H95.7812C81.5427 116 70 127.543 70 141.781V310.219C70 324.457 81.5427 336 95.7812 336H264.219C278.457 336 290 324.457 290 310.219V141.781C290 127.543 278.457 116 264.219 116Z" fill="#817FCC"/>
<path d="M259.922 137.484H100.078C95.3319 137.484 91.4844 141.332 91.4844 146.078V171.859C91.4844 176.606 95.3319 180.453 100.078 180.453H259.922C264.668 180.453 268.516 176.606 268.516 171.859V146.078C268.516 141.332 264.668 137.484 259.922 137.484Z" fill="white"/>
<path d="M163.801 200.219H99.5195C95.0818 200.219 91.4844 203.724 91.4844 208.047V306.687C91.4844 311.011 95.0818 314.516 99.5195 314.516H163.801C168.238 314.516 171.836 311.011 171.836 306.687V208.047C171.836 203.724 168.238 200.219 163.801 200.219Z" fill="white"/>
<path d="M260.549 200.219H199.998C195.598 200.219 192.031 203.352 192.031 207.217V242.205C192.031 246.07 195.598 249.203 199.998 249.203H260.549C264.949 249.203 268.516 246.07 268.516 242.205V207.217C268.516 203.352 264.949 200.219 260.549 200.219Z" fill="white"/>
<path d="M192.031 282.068H196.031V273.682C196.031 272.191 197.466 270.391 199.998 270.391H207.567V266.391H222.705V270.391H237.842V266.391H252.98V270.391H260.549C263.08 270.391 264.516 272.191 264.516 273.682V282.068H268.516V298.839H264.516V307.224C264.516 308.716 263.08 310.516 260.549 310.516H252.98V314.516H237.842V310.516H222.705V314.516H207.567V310.516H199.998C197.466 310.516 196.031 308.716 196.031 307.224V298.839H192.031V282.068Z" stroke="white" stroke-width="8" stroke-dasharray="16 16"/>
</g>
<defs>
<clipPath id="clip0_226_388">
<rect width="220" height="220" fill="white" transform="translate(70 116)"/>
</clipPath>
</defs>
</svg>
